<?xml version="1.0"?>
<svg xmlns="http://www.w3.org/2000/svg" enable-background="new 0 0 60 54" height="512px" viewBox="0 0 60 54" width="512px" class=""><g><path d="m13 1h34v7h-34z" fill="#dd352e" data-original="#DD352E" class=""/><path d="m7 7h46v7h-46z" fill="#b02721" data-original="#B02721" class="" style="fill:#FFF39D" data-old_color="#b02721"/><path d="m1 13h58v40h-58z" fill="#dd352e" data-original="#DD352E" class=""/><path d="m24 40.051v-15.043c0-.78.863-1.263 1.546-.867l12.951 7.521c.671.39.671 1.344 0 1.734l-12.951 7.521c-.683.397-1.546-.086-1.546-.866z" fill="#fff" data-original="#FFF" class="active-path" data-old_color="#fff" style="fill:#FFDECC"/><g fill="#4d007e"><path d="m59 54h-58c-.552 0-1-.447-1-1v-40c0-.553.448-1 1-1h58c.552 0 1 .447 1 1v40c0 .553-.448 1-1 1zm-57-2h56v-38h-56z" data-original="#4D007E" class="" data-old_color="#4D007E" style="fill:#000000"/><path d="m53 14h-46c-.552 0-1-.447-1-1v-6c0-.553.448-1 1-1h46c.552 0 1 .447 1 1v6c0 .553-.448 1-1 1zm-45-2h44v-4h-44z" data-original="#4D007E" class="" data-old_color="#4D007E" style="fill:#000000"/><path d="m47 8h-34c-.552 0-1-.447-1-1v-6c0-.553.448-1 1-1h34c.552 0 1 .447 1 1v6c0 .553-.448 1-1 1zm-33-2h32v-4h-32z" data-original="#4D007E" class="" data-old_color="#4D007E" style="fill:#000000"/><path d="m25.025 42.062c-.349 0-.698-.092-1.017-.275-.631-.364-1.008-1.013-1.008-1.736v-15.042c0-.724.377-1.372 1.008-1.735.63-.363 1.412-.36 2.04.003l12.951 7.522c.627.363 1.001 1.011 1.001 1.731s-.374 1.367-1.001 1.731l-12.951 7.521c-.32.187-.672.28-1.023.28zm.018-17.056-.043 15.045v.004l12.994-7.523z" data-original="#4D007E" class="" data-old_color="#4D007E" style="fill:#000000"/></g></g> </svg>
