<?xml version="1.0" encoding="iso-8859-1"?>
<!-- Generator: Adobe Illustrator 19.0.0, SVG Export Plug-In . SVG Version: 6.00 Build 0)  -->
<svg version="1.1" id="Capa_1" xmlns="http://www.w3.org/2000/svg" xmlns:xlink="http://www.w3.org/1999/xlink" x="0px" y="0px"
	 viewBox="0 0 512 512" style="enable-background:new 0 0 512 512;" xml:space="preserve">
<path style="fill:#41769E;" d="M375.467,8.533H136.533c-18.85,0-34.133,15.283-34.133,34.133v426.667
	c0,18.85,15.283,34.133,34.133,34.133h238.933c18.85,0,34.133-15.283,34.133-34.133V42.667
	C409.6,23.817,394.317,8.533,375.467,8.533z M384,460.8c0,9.429-7.637,17.067-17.067,17.067H145.067
	c-9.429,0-17.067-7.637-17.067-17.067V51.2c0-9.429,7.637-17.067,17.067-17.067h221.867c9.429,0,17.067,7.637,17.067,17.067V460.8z"
	/>
<path style="fill:#78B9EB;" d="M366.933,34.133H145.067C135.637,34.133,128,41.771,128,51.2v409.6
	c0,9.429,7.637,17.067,17.067,17.067h221.867c9.429,0,17.067-7.637,17.067-17.067V51.2C384,41.771,376.363,34.133,366.933,34.133z
	 M256,435.2c-47.13,0-85.333-38.204-85.333-85.333S208.87,264.533,256,264.533s85.333,38.204,85.333,85.333S303.13,435.2,256,435.2z
	 M349.867,204.8H162.133V68.267h187.733V204.8z"/>
<g>
	<path style="fill:#E6E7E8;" d="M256,264.533c-47.13,0-85.333,38.204-85.333,85.333S208.87,435.2,256,435.2
		s85.333-38.204,85.333-85.333S303.13,264.533,256,264.533z M256,384c-18.85,0-34.133-15.283-34.133-34.133
		c0-18.85,15.283-34.133,34.133-34.133c18.85,0,34.133,15.283,34.133,34.133C290.133,368.717,274.85,384,256,384z"/>
	<rect x="162.133" y="68.267" style="fill:#E6E7E8;" width="187.733" height="136.533"/>
	<circle style="fill:#E6E7E8;" cx="256" cy="349.867" r="34.133"/>
</g>
<g>
	<path style="fill:#231F20;" d="M375.467,512H136.533c-23.552-0.026-42.641-19.115-42.667-42.667V42.667
		C93.892,19.115,112.981,0.026,136.533,0h238.933c23.552,0.026,42.641,19.115,42.667,42.667v426.667
		C418.108,492.885,399.019,511.974,375.467,512z M136.533,17.067c-14.14,0-25.6,11.46-25.6,25.6v426.667
		c0,14.14,11.46,25.6,25.6,25.6h238.933c14.14,0,25.6-11.46,25.6-25.6V42.667c0-14.14-11.46-25.6-25.6-25.6H136.533z"/>
	<path style="fill:#231F20;" d="M256,443.733c-51.84,0-93.867-42.027-93.867-93.867S204.16,256,256,256s93.867,42.027,93.867,93.867
		C349.807,401.681,307.814,443.674,256,443.733z M256,273.067c-42.419,0-76.8,34.381-76.8,76.8s34.381,76.8,76.8,76.8
		s76.8-34.381,76.8-76.8C332.749,307.473,298.394,273.118,256,273.067z"/>
	<path style="fill:#231F20;" d="M358.4,213.333H153.6v-153.6h204.8V213.333z M170.667,196.267h170.667V76.8H170.667V196.267z"/>
	<path style="fill:#231F20;" d="M256,392.533c-23.561,0-42.667-19.106-42.667-42.667c0-23.561,19.106-42.667,42.667-42.667
		c23.561,0,42.667,19.106,42.667,42.667C298.641,373.419,279.552,392.508,256,392.533z M256,324.267c-14.14,0-25.6,11.46-25.6,25.6
		c0,14.14,11.46,25.6,25.6,25.6c14.14,0,25.6-11.46,25.6-25.6C281.6,335.727,270.14,324.267,256,324.267z"/>
	<path style="fill:#231F20;" d="M366.933,486.4H145.067c-14.14,0-25.6-11.46-25.6-25.6V51.2c0-14.14,11.46-25.6,25.6-25.6h221.867
		c14.14,0,25.6,11.46,25.6,25.6v409.6C392.533,474.94,381.073,486.4,366.933,486.4z M145.067,42.667
		c-4.71,0-8.533,3.823-8.533,8.533v409.6c0,4.71,3.823,8.533,8.533,8.533h221.867c4.71,0,8.533-3.823,8.533-8.533V51.2
		c0-4.71-3.823-8.533-8.533-8.533H145.067z"/>
</g>
<g>
</g>
<g>
</g>
<g>
</g>
<g>
</g>
<g>
</g>
<g>
</g>
<g>
</g>
<g>
</g>
<g>
</g>
<g>
</g>
<g>
</g>
<g>
</g>
<g>
</g>
<g>
</g>
<g>
</g>
</svg>
