<?xml version="1.0"?>
<svg xmlns="http://www.w3.org/2000/svg" xmlns:xlink="http://www.w3.org/1999/xlink" version="1.1" id="Layer_1" x="0px" y="0px" viewBox="0 0 507.2 507.2" style="enable-background:new 0 0 507.2 507.2;" xml:space="preserve" width="512px" height="512px" class="hovered-paths"><g><circle style="fill:#556080" cx="253.6" cy="253.6" r="253.6" data-original="#F15249" class="" data-old_color="#F15249"/><path style="fill:#7383BF" d="M147.2,368L284,504.8c115.2-13.6,206.4-104,220.8-219.2L367.2,148L147.2,368z" data-original="#AD0E0E" class="" data-old_color="#AD0E0E"/><path style="fill:#64FFDA" d="M373.6,309.6c11.2,11.2,11.2,30.4,0,41.6l-22.4,22.4c-11.2,11.2-30.4,11.2-41.6,0l-176-176  c-11.2-11.2-11.2-30.4,0-41.6l23.2-23.2c11.2-11.2,30.4-11.2,41.6,0L373.6,309.6z" data-original="#FFFFFF" class="" data-old_color="#FFFFFF"/><path style="fill:#64FFDA" d="M280.8,216L216,280.8l93.6,92.8c11.2,11.2,30.4,11.2,41.6,0l23.2-23.2c11.2-11.2,11.2-30.4,0-41.6  L280.8,216z" data-original="#D6D6D6" class="hovered-path active-path" data-old_color="#D6D6D6"/><path style="fill:#64FFDA" d="M309.6,133.6c11.2-11.2,30.4-11.2,41.6,0l23.2,23.2c11.2,11.2,11.2,30.4,0,41.6L197.6,373.6  c-11.2,11.2-30.4,11.2-41.6,0l-22.4-22.4c-11.2-11.2-11.2-30.4,0-41.6L309.6,133.6z" data-original="#FFFFFF" class="" data-old_color="#FFFFFF"/></g> </svg>
