<?xml version="1.0"?>
<svg xmlns="http://www.w3.org/2000/svg" xmlns:xlink="http://www.w3.org/1999/xlink" version="1.1" id="Capa_1" x="0px" y="0px" viewBox="0 0 384 384" style="enable-background:new 0 0 384 384;" xml:space="preserve" width="512px" height="512px" class=""><g><g>
	<g>
		<g>
			<path d="M341.333,0H42.667C18.987,0,0,19.2,0,42.667v298.667C0,364.8,18.987,384,42.667,384h298.667     C364.8,384,384,364.8,384,341.333V42.667C384,19.2,364.8,0,341.333,0z M170.667,256h-32v-42.667H96V256H64V128h32v53.333h42.667     V128h32V256z M320,234.667C320,246.4,310.4,256,298.667,256h-85.333V128h85.333C310.4,128,320,137.6,320,149.333V234.667z" data-original="#000000" class="active-path" data-old_color="#000000" fill="#00685F"/>
			<rect x="245.333" y="160" width="42.667" height="64" data-original="#000000" class="active-path" data-old_color="#000000" fill="#00685F"/>
		</g>
	</g>
</g></g> </svg>
