<?xml version="1.0" ?><svg height="64" id="svg6485" version="1.1" viewBox="0 0 64 64" width="64" xmlns="http://www.w3.org/2000/svg" xmlns:cc="http://creativecommons.org/ns#" xmlns:dc="http://purl.org/dc/elements/1.1/" xmlns:inkscape="http://www.inkscape.org/namespaces/inkscape" xmlns:rdf="http://www.w3.org/1999/02/22-rdf-syntax-ns#" xmlns:sodipodi="http://sodipodi.sourceforge.net/DTD/sodipodi-0.dtd" xmlns:svg="http://www.w3.org/2000/svg"><defs id="defs6487"><clipPath clipPathUnits="userSpaceOnUse" id="clipPath18427"><rect height="121.40158" id="rect18429" style="opacity:1;fill:#e9e9e9;fill-opacity:0.8041237;stroke:none;stroke-width:1;stroke-linecap:round;stroke-linejoin:round;stroke-miterlimit:4;stroke-dasharray:none;stroke-dashoffset:0;stroke-opacity:1;paint-order:fill markers stroke" width="88.351334" x="-269.08893" y="204.7206"/></clipPath><clipPath clipPathUnits="userSpaceOnUse" id="clipPath18443"><path d="m -222.26758,211.43642 a 31.996582,31.996582 0 0 0 -31.99804,31.99609 31.996582,31.996582 0 0 0 10.67773,23.81446 c -3.77662,1.10404 -6.52344,4.57592 -6.52344,8.71875 0,5.03653 4.05527,9.09179 9.0918,9.09179 l 7.63086,0 0,35.49219 c 0,1.71385 1.3799,3.09375 3.09375,3.09375 1.71385,0 3.0918,-1.3799 3.0918,-3.09375 l 0,-35.49219 1.59179,0 0,37.99219 c 0,1.71385 1.3799,3.09375 3.09375,3.09375 1.71385,0 3.09375,-1.3799 3.09375,-3.09375 l 0,-37.99219 1.625,0 0,35.49219 c 0,1.71385 1.3799,3.09375 3.09375,3.09375 1.71385,0 3.09375,-1.3799 3.09375,-3.09375 l 0,-35.49219 6.67969,0 c 5.03653,0 9.0918,-4.05526 9.0918,-9.09179 0,-3.7665 -2.26947,-6.98211 -5.51954,-8.36524 a 31.996582,31.996582 0 0 0 11.0879,-24.16797 31.996582,31.996582 0 0 0 -31.9961,-31.99609 z" id="path18445" style="opacity:1;fill:#e9e9e9;fill-opacity:0.8041237;stroke:none;stroke-width:1;stroke-linecap:round;stroke-linejoin:round;stroke-miterlimit:4;stroke-dasharray:none;stroke-dashoffset:0;stroke-opacity:1;paint-order:fill markers stroke"/></clipPath><clipPath clipPathUnits="userSpaceOnUse" id="clipPath5172"><rect height="32" id="rect5174" rx="0" ry="0" style="color:#000000;clip-rule:nonzero;display:inline;overflow:visible;visibility:visible;opacity:1;isolation:auto;mix-blend-mode:normal;color-interpolation:sRGB;color-interpolation-filters:linearRGB;solid-color:#000000;solid-opacity:1;fill:#000000;fill-opacity:0.51572331;fill-rule:nonzero;stroke:none;stroke-width:1;stroke-linecap:round;stroke-linejoin:round;stroke-miterlimit:4;stroke-dasharray:none;stroke-dashoffset:0;stroke-opacity:1;color-rendering:auto;image-rendering:auto;shape-rendering:auto;text-rendering:auto;enable-background:accumulate" width="32" x="0" y="1020.3622"/></clipPath><clipPath clipPathUnits="userSpaceOnUse" id="clipPath5284"><rect height="48" id="rect5286" style="color:#000000;clip-rule:nonzero;display:inline;overflow:visible;visibility:visible;opacity:1;isolation:auto;mix-blend-mode:normal;color-interpolation:sRGB;color-interpolation-filters:linearRGB;solid-color:#000000;solid-opacity:1;fill:#000000;fill-opacity:0.48427675;fill-rule:nonzero;stroke:none;stroke-width:0.40000001;stroke-linecap:round;stroke-linejoin:round;stroke-miterlimit:4;stroke-dasharray:none;stroke-dashoffset:0;stroke-opacity:1;color-rendering:auto;image-rendering:auto;shape-rendering:auto;text-rendering:auto;enable-background:accumulate" width="48" x="0" y="1004.3622"/></clipPath><clipPath clipPathUnits="userSpaceOnUse" id="clipPath5192"><rect height="229.66507" id="rect5194" rx="1.00002" ry="1.00002" style="color:#000000;clip-rule:nonzero;display:inline;overflow:visible;visibility:visible;opacity:1;isolation:auto;mix-blend-mode:normal;color-interpolation:sRGB;color-interpolation-filters:linearRGB;solid-color:#000000;solid-opacity:1;fill:#242730;fill-opacity:1;fill-rule:nonzero;stroke:#000000;stroke-width:1.79999995;stroke-linecap:round;stroke-linejoin:round;stroke-miterlimit:4;stroke-dasharray:none;stroke-dashoffset:0;stroke-opacity:1;color-rendering:auto;image-rendering:auto;shape-rendering:auto;text-rendering:auto;enable-background:accumulate" width="445.24402" x="80.842102" y="898.63971"/></clipPath></defs><g id="layer1" style="display:inline" transform="translate(0,-988.3622)"><g id="g7488" style="display:inline" transform="translate(2.0001195,-218.00169)"><g id="g7085" transform="translate(217.35946,42.466231)"><path d="m -187.2451,1227.3963 c -0.89103,0.021 -1.77059,-0.2094 -2.54239,-0.667 l -22.36747,-13.2577 c -1.50219,-0.8908 -2.42753,-2.5366 -2.42763,-4.3175 l 0,-26.5137 c 1e-4,-1.781 0.92544,-3.4267 2.42763,-4.3176 l 22.36747,-13.2576 c 1.50232,-0.89 3.35294,-0.89 4.85526,0 l 22.36747,13.2576 c 1.50219,0.8909 2.42753,2.5366 2.42763,4.3176 l 0,26.5137 c -10e-5,1.7809 -0.92544,3.4267 -2.42763,4.3175 l -22.36747,13.2577 c -0.70438,0.4176 -1.49967,0.6471 -2.31287,0.667 z" id="path7087" style="color:#000000;font-style:normal;font-variant:normal;font-weight:normal;font-stretch:normal;font-size:medium;line-height:normal;font-family:sans-serif;text-indent:0;text-align:start;text-decoration:none;text-decoration-line:none;text-decoration-style:solid;text-decoration-color:#000000;letter-spacing:normal;word-spacing:normal;text-transform:none;direction:ltr;block-progression:tb;writing-mode:lr-tb;baseline-shift:baseline;text-anchor:start;white-space:normal;clip-rule:nonzero;display:inline;overflow:visible;visibility:visible;opacity:1;isolation:auto;mix-blend-mode:normal;color-interpolation:sRGB;color-interpolation-filters:linearRGB;solid-color:#000000;solid-opacity:1;fill:#abffab;fill-opacity:1;fill-rule:nonzero;stroke:none;stroke-width:11.73740768;stroke-linecap:round;stroke-linejoin:round;stroke-miterlimit:4;stroke-dasharray:none;stroke-dashoffset:0;stroke-opacity:1;color-rendering:auto;image-rendering:auto;shape-rendering:auto;text-rendering:auto;enable-background:accumulate"/><path d="m -185.81055,176.30664 c -1.42343,1.73142 -2.2741,2.82567 -1.63672,4.86914 0.24983,-1.0669 0.55792,-1.73157 0.8711,-2.35547 -0.40411,0.987 -0.53602,1.59909 -0.53516,2.30469 -0.82907,0.5837 -1.65175,1.25009 -2.46679,1.99609 l 0,-2.80468 c 0.26419,-0.035 0.4707,-0.25149 0.4707,-0.52539 0,-0.2981 -0.24099,-0.53711 -0.53906,-0.53711 l -4.04883,0 c -0.29808,0 -0.53711,0.23901 -0.53711,0.53711 0,0.2737 0.20485,0.49039 0.46875,0.52539 l 0,12.42773 0.0703,0 c -0.29808,0 -0.53906,0.23901 -0.53906,0.53711 0,0.2739 0.2065,0.49039 0.4707,0.52539 l 0,2.80469 c -0.81505,-0.7459 -1.63772,-1.4124 -2.4668,-1.9961 8.6e-4,-0.7056 -0.13105,-1.31768 -0.53515,-2.30468 0.31318,0.6239 0.62127,1.28857 0.87109,2.35547 0.6811,-2.1836 -0.30771,-3.25564 -1.91211,-5.21094 0.68883,2.1412 -0.0137,3.60383 1.1875,4.89453 -1.47255,-0.9976 -2.96174,-1.80307 -4.45703,-2.54297 -0.0938,-0.0466 -0.18735,-0.0946 -0.28125,-0.14062 -0.0121,-0.5414 -0.12322,-1.03504 -0.4375,-1.80274 0.25842,0.5148 0.51253,1.06346 0.71875,1.94336 0.56126,-1.802 -0.25366,-2.68863 -1.57812,-4.30273 0.55701,1.7314 0.004,2.92686 0.91211,3.97656 -0.73331,-0.3562 -1.46803,-0.70645 -2.20118,-1.06445 0.86387,0.4715 1.72609,0.94568 2.57813,1.42968 0.006,0.004 0.008,0.0156 0.0137,0.0156 4e-5,-0.0102 -4e-5,-0.0117 0,-0.0117 0.70303,0.3994 1.39626,0.80872 2.07617,1.23242 -1.98436,0.1228 -2.81045,1.37108 -4.23828,3.36328 2.15333,-1.3895 3.94763,-0.90406 4.89453,-2.94726 1.77351,1.15105 3.42087,2.43471 4.82813,3.96875 -0.0508,-0.0247 -0.10153,-0.0494 -0.15235,-0.0742 0.0589,0.0322 0.11687,0.0655 0.17579,0.0976 0.001,10e-4 0.003,0.003 0.004,0.004 l 0,8.73633 0.0664,0 c -0.29808,0 -0.53711,0.23901 -0.53711,0.53711 0,0.2737 0.20485,0.49039 0.46875,0.52539 l 0,12.42773 0.0703,0 c -0.29808,0 -0.53906,0.23901 -0.53906,0.53711 0,0.2739 0.2065,0.49039 0.4707,0.52539 l 0,2.80469 c -0.81505,-0.746 -1.63772,-1.41239 -2.4668,-1.99609 8.6e-4,-0.7056 -0.13105,-1.31769 -0.53515,-2.30469 0.31318,0.6239 0.62127,1.28857 0.87109,2.35547 0.6811,-2.1836 -0.30771,-3.25564 -1.91211,-5.21094 0.68883,2.1412 -0.0137,3.60383 1.1875,4.89453 -1.47255,-0.9976 -2.96174,-1.80307 -4.45703,-2.54297 -0.0938,-0.0466 -0.18735,-0.0946 -0.28125,-0.14062 -0.0121,-0.5414 -0.12322,-1.03504 -0.4375,-1.80274 0.25842,0.5148 0.51253,1.06346 0.71875,1.94336 0.56126,-1.802 -0.25366,-2.68863 -1.57812,-4.30273 0.55701,1.7314 0.004,2.92686 0.91211,3.97656 -0.73331,-0.3562 -1.46803,-0.70645 -2.20118,-1.06445 0.86387,0.4715 1.72609,0.94569 2.57813,1.42969 0.006,0.004 0.008,0.0156 0.0137,0.0156 4e-5,-0.0102 -4e-5,-0.0117 0,-0.0117 0.70303,0.3994 1.39626,0.81058 2.07617,1.23438 -1.98436,0.1228 -2.81045,1.36913 -4.23828,3.36133 2.15333,-1.3895 3.94763,-0.90212 4.89453,-2.94532 1.77195,1.14995 3.41778,2.4326 4.82422,3.96485 -0.0495,-0.0241 -0.0989,-0.0481 -0.14844,-0.0723 0.0576,0.0315 0.11425,0.0642 0.17188,0.0957 0.002,0.003 0.005,0.005 0.008,0.008 l 0,8.73437 0.0664,0 c -0.29808,0 -0.53711,0.23901 -0.53711,0.53711 0,0.2737 0.20485,0.49039 0.46875,0.52539 l 0,1.74024 3.97656,2.35742 c 0.0675,0.04 0.13989,0.0689 0.20899,0.10547 l 0,-0.51368 c 1.41296,-1.5467 3.07095,-2.83799 4.85546,-3.99609 0.25875,0.55833 0.5856,0.91891 0.96094,1.18945 l 0,2.52149 4.18555,-2.48047 0,-4.2168 c 0.0594,-0.0325 0.11831,-0.0652 0.17773,-0.0977 -0.0592,0.0289 -0.11852,0.0571 -0.17773,0.0859 l 0,-3.20703 c 0.26389,-0.0349 0.46875,-0.25169 0.46875,-0.52539 0,-0.2981 -0.23904,-0.53711 -0.53711,-0.53711 l 0.0664,0 0,-8.73633 c 0.0746,-0.0817 0.15644,-0.15604 0.23242,-0.23632 0.66336,0.36382 1.32721,0.72742 1.98242,1.09961 0.006,0.004 0.008,0.0156 0.0137,0.0156 4e-5,-0.0102 -4e-5,-0.0117 0,-0.0117 0.70303,0.3994 1.39626,0.81058 2.07617,1.23438 -1.98436,0.1228 -2.81045,1.36913 -4.23828,3.36133 2.15333,-1.3895 3.94763,-0.90212 4.89453,-2.94532 1.78451,1.1581 3.4425,2.4494 4.85547,3.9961 l 0,4.90234 4.18555,-2.48047 0,-6.11523 c 0.26389,-0.0349 0.46875,-0.25169 0.46875,-0.52539 0,-0.2981 -0.23904,-0.53711 -0.53711,-0.53711 l 0.0664,0 0,-8.73633 c 1.41295,-1.5467 3.07096,-2.8379 4.85546,-3.99609 0.16694,0.36022 0.369,0.62245 0.58594,0.8496 l 0,-0.74218 c -0.16003,-0.0623 -0.32061,-0.11589 -0.48828,-0.16211 0.10069,-0.065 0.20326,-0.12741 0.30469,-0.19141 0.072,0.0415 0.11578,0.0801 0.18359,0.1211 l 0,-0.58204 c -0.86562,0.47513 -1.72949,0.97839 -2.58594,1.5586 1.2012,-1.2907 0.49868,-2.75333 1.1875,-4.89453 -1.60439,1.9553 -2.5932,3.02733 -1.91211,5.21093 0.24983,-1.0669 0.55792,-1.73156 0.8711,-2.35546 -0.40411,0.98699 -0.53602,1.59908 -0.53516,2.30468 -0.82908,0.5836 -1.65174,1.2502 -2.46679,1.9961 l 0,-2.80469 c 0.2642,-0.035 0.4707,-0.25149 0.4707,-0.52539 0,-0.2981 -0.24098,-0.53711 -0.53906,-0.53711 l 0.0703,0 0,-12.42774 c 0.2639,-0.0349 0.46875,-0.25169 0.46875,-0.52539 0,-0.2981 -0.23904,-0.53711 -0.53711,-0.53711 l 0.0664,0 0,-4.5664 -4.18555,-2.48047 0,7.05078 0.0703,0 c -0.29808,0 -0.53906,0.23901 -0.53906,0.53711 0,0.2739 0.2065,0.49039 0.4707,0.52539 l 0,2.80469 c -0.81505,-0.7459 -1.63772,-1.4124 -2.4668,-1.9961 8.6e-4,-0.7056 -0.13105,-1.31768 -0.53515,-2.30468 0.31318,0.6239 0.62127,1.28857 0.87109,2.35547 0.6811,-2.1836 -0.30771,-3.25564 -1.91211,-5.21094 0.68883,2.1412 -0.0137,3.60383 1.1875,4.89453 -1.47255,-0.9976 -2.96174,-1.80307 -4.45703,-2.54297 -0.0938,-0.0466 -0.18735,-0.0946 -0.28125,-0.14062 -0.0121,-0.5414 -0.12322,-1.03504 -0.4375,-1.80274 0.25842,0.5148 0.51253,1.06346 0.71875,1.94336 0.36351,-1.16709 0.14348,-1.95141 -0.41211,-2.79687 0.87353,-0.72487 1.79708,-1.39804 2.76367,-2.02539 0.9469,2.0432 2.7412,1.55776 4.89454,2.94726 -1.42784,-1.9922 -2.25392,-3.24048 -4.23829,-3.36328 0.67991,-0.4237 1.37314,-0.83302 2.07618,-1.23242 4e-5,0 -5e-5,0.002 0,0.0117 0.006,0 0.008,-0.0156 0.0137,-0.0156 0.27364,-0.15545 0.5523,-0.30575 0.82812,-0.45898 l -0.11523,-0.0684 c -0.1119,0.0542 -0.22407,0.10777 -0.33594,0.16211 0.0725,-0.0839 0.12255,-0.16987 0.17773,-0.25586 l -0.46874,-0.2793 c -0.0529,0.24806 -0.0884,0.48171 -0.0938,0.7207 -0.0939,0.0457 -0.18745,0.0936 -0.28124,0.14063 -1.49529,0.7399 -2.98448,1.54537 -4.45704,2.54297 1.2012,-1.2907 0.49868,-2.75333 1.1875,-4.89453 -1.60439,1.9553 -2.5932,3.02733 -1.91211,5.21093 0.24983,-1.0669 0.55792,-1.73156 0.8711,-2.35546 -0.40411,0.98699 -0.53602,1.59908 -0.53516,2.30468 -0.2203,0.15508 -0.43883,0.33133 -0.6582,0.49805 -0.25339,-0.33736 -0.5527,-0.6934 -0.88281,-1.0957 0.18663,0.58012 0.24122,1.08412 0.27539,1.55859 -0.40198,0.3263 -0.8027,0.67049 -1.20117,1.03516 l 0,-2.80469 c 0.2642,-0.035 0.4707,-0.25149 0.4707,-0.52539 0,-0.2981 -0.24098,-0.53711 -0.53906,-0.53711 l 0.0703,0 0,-6.35352 -4.41992,-2.61914 c 0.0764,0.0807 0.15937,0.15423 0.23437,0.23633 l 0,1.60938 c -0.99155,0.531 -1.98101,1.092 -2.96094,1.75586 1.12327,-1.20698 0.59571,-2.57221 1.08399,-4.49415 -0.0566,-0.0221 -0.11466,-0.0388 -0.17188,-0.0586 z m 13.54493,8.98633 c 0.0851,-0.36334 0.18283,-0.6447 0.28124,-0.91602 l -0.45703,-0.26953 c -0.0154,0.35662 0.0379,0.74277 0.17579,1.18555 z m -11.4961,-5.88281 0,0.22461 c -0.10227,-0.0135 -0.19573,-0.0362 -0.30469,-0.043 0.0999,-0.0623 0.20424,-0.12 0.30469,-0.18164 z m -0.55859,0.34765 c 0.21878,0.12607 0.3754,0.24538 0.55859,0.36719 l 0,0.1582 c -0.28719,-0.14113 -0.56575,-0.25196 -0.86328,-0.33398 0.10069,-0.065 0.20326,-0.12741 0.30469,-0.19141 z m -0.40235,0.25 c 0.25872,0.55826 0.58567,0.91891 0.96094,1.18946 l 0,5.0332 0.0664,0 c -0.29808,0 -0.53711,0.23901 -0.53711,0.53711 0,0.2737 0.20485,0.49039 0.46875,0.52539 l 0,12.42773 0.0703,0 c -0.29808,0 -0.53906,0.23901 -0.53906,0.53711 0,0.2739 0.2065,0.49039 0.4707,0.52539 l 0,2.80469 c -0.81505,-0.746 -1.63772,-1.41239 -2.4668,-1.99609 8.6e-4,-0.7056 -0.13105,-1.31769 -0.53515,-2.30469 0.31318,0.6239 0.62127,1.28857 0.87109,2.35547 0.6811,-2.1836 -0.30771,-3.25564 -1.91211,-5.21094 0.68883,2.1412 -0.0137,3.60383 1.1875,4.89453 -0.97941,-0.66351 -1.96795,-1.22508 -2.95898,-1.75586 l 0,-5.76758 c 0.2639,-0.0349 0.46875,-0.25169 0.46875,-0.52539 0,-0.2981 -0.23904,-0.53711 -0.53711,-0.53711 l 0.0664,0 0,-8.73632 c 1.41296,-1.5467 3.07096,-2.8379 4.85546,-3.9961 z m -12.92382,1.35352 -0.69727,0.41406 c 0.39882,0.28165 0.75112,0.55796 1.05469,0.82813 -0.44457,-0.33828 -0.81304,-0.58158 -1.16016,-0.76563 l -0.64258,0.38086 c 1.01051,1.21222 2.5884,1.03463 4.43555,2.22656 -1.08592,-1.51514 -1.82619,-2.59728 -2.99023,-3.08398 z m -6.45704,3.82812 -4.48828,2.66016 0,6.38086 0.0703,0 c -0.29808,0 -0.53907,0.23901 -0.53907,0.53711 0,0.2739 0.2065,0.49039 0.47071,0.52539 l 0,2.80469 c -0.81505,-0.7459 -1.63772,-1.4125 -2.4668,-1.9961 8.6e-4,-0.7056 -0.13105,-1.3177 -0.53516,-2.30468 0.31318,0.6239 0.62127,1.28856 0.8711,2.35546 0.68109,-2.1836 -0.30772,-3.25563 -1.91211,-5.21093 0.68882,2.1412 -0.0137,3.60383 1.1875,4.89453 -1.03212,-0.69922 -2.07432,-1.28582 -3.11914,-1.83985 -0.005,0.094 -0.0176,0.18642 -0.0176,0.28125 l 0,0.006 c 0.15872,0.0966 0.32313,0.18711 0.48047,0.28516 -0.17192,0.0106 -0.3248,0.0411 -0.48047,0.0684 l 0,0.58398 c 0.22843,-0.15862 0.44679,-0.31671 0.73437,-0.48242 0.10143,0.064 0.204,0.12641 0.30469,0.19141 -0.35781,0.0986 -0.687,0.22806 -1.03906,0.41797 l 0,0.9375 c 0.4499,-0.27933 0.83909,-0.65857 1.13672,-1.30078 1.7845,1.1582 3.44251,2.44939 4.85547,3.99609 l 0,8.73633 0.0664,0 c -0.29807,0 -0.53711,0.23901 -0.53711,0.53711 0,0.2737 0.20486,0.49049 0.46875,0.52539 l 0,12.42773 0.0703,0 c -0.29807,0 -0.53907,0.23901 -0.53907,0.53711 0,0.2739 0.20651,0.49039 0.47071,0.52539 l 0,2.80469 c -0.81504,-0.746 -1.63772,-1.41239 -2.4668,-1.9961 8.6e-4,-0.7056 -0.13105,-1.31768 -0.53516,-2.30468 0.31318,0.6239 0.62127,1.28857 0.8711,2.35547 0.68109,-2.1836 -0.30772,-3.25564 -1.91211,-5.21094 0.68882,2.1412 -0.0137,3.60383 1.1875,4.89453 -1.0339,-0.70042 -2.07836,-1.28699 -3.125,-1.8418 0.004,0.10382 0.01,0.20793 0.0195,0.31055 0.14817,0.0903 0.30226,0.17404 0.44922,0.26563 -0.14599,0.009 -0.27405,0.0356 -0.40821,0.0566 0.0264,0.16416 0.0538,0.32688 0.0957,0.48632 0.18516,-0.12334 0.34478,-0.24338 0.5664,-0.37109 0.10143,0.064 0.204,0.12641 0.30469,0.19141 -0.28463,0.0785 -0.55225,0.18462 -0.82617,0.3164 0.0678,0.23088 0.15299,0.45458 0.25195,0.67188 0.25204,-0.24115 0.48324,-0.52851 0.67188,-0.93555 1.78451,1.1581 3.4425,2.44939 4.85547,3.99609 l 0,1.26368 4.18554,2.48046 0,-7.43359 c 0.2639,-0.035 0.46875,-0.25169 0.46875,-0.52539 0,-0.2981 -0.23903,-0.53711 -0.53711,-0.53711 l 0.0664,0 0,-8.73437 c 1.41297,-1.5467 3.07096,-2.838 4.85547,-3.9961 0.9469,2.0432 2.7412,1.55581 4.89453,2.94532 -1.42783,-1.9922 -2.25392,-3.23853 -4.23828,-3.36133 0.67991,-0.4238 1.37314,-0.83498 2.07617,-1.23438 4e-5,0 -4e-5,0.002 0,0.0117 0.006,0 0.008,-0.0116 0.0137,-0.0156 0.85204,-0.484 1.71426,-0.95819 2.57813,-1.42969 -0.73315,0.358 -1.46786,0.70825 -2.20117,1.06445 0.90765,-1.0497 0.3551,-2.24516 0.91211,-3.97656 -1.32446,1.6141 -2.13939,2.50073 -1.57813,4.30273 0.20622,-0.8799 0.46033,-1.42856 0.71875,-1.94336 -0.31428,0.7677 -0.42544,1.26134 -0.4375,1.80274 -0.0939,0.046 -0.18742,0.094 -0.28125,0.14062 -1.49529,0.7399 -2.98448,1.54537 -4.45703,2.54297 1.20124,-1.2907 0.49867,-2.75333 1.1875,-4.89453 -1.6044,1.9553 -2.59321,3.02734 -1.91211,5.21094 0.24982,-1.0669 0.55791,-1.73157 0.87109,-2.35547 -0.4041,0.987 -0.53601,1.59909 -0.53515,2.30469 -0.82908,0.5837 -1.65175,1.25009 -2.4668,1.99609 l 0,-2.80469 c 0.2642,-0.035 0.4707,-0.25149 0.4707,-0.52539 0,-0.2981 -0.24098,-0.53711 -0.53906,-0.53711 l 0.0703,0 0,-12.42773 c 0.2639,-0.035 0.46875,-0.25169 0.46875,-0.52539 0,-0.2981 -0.23903,-0.53711 -0.53711,-0.53711 l 0.0664,0 0,-8.73633 c 0.0968,-0.10595 0.20368,-0.20109 0.30273,-0.30469 z m 29.78321,1.54883 c 0.82728,0.4767 1.36925,0.91927 1.85937,1.35547 -0.87881,-0.6687 -1.4636,-0.97096 -2.16406,-1.16406 0.10069,-0.065 0.20326,-0.12741 0.30469,-0.19141 z m -4.00781,3.00195 c 0.0448,0.64958 0.13236,1.21343 0.58789,1.74024 -0.52582,-0.25541 -1.05197,-0.50932 -1.57813,-0.76367 0.31977,-0.33652 0.64832,-0.66315 0.99024,-0.97657 z m -1.01758,1.00586 c 0.66336,0.36383 1.32721,0.72743 1.98242,1.09961 0.006,0.004 0.008,0.0156 0.0137,0.0156 4e-5,-0.0102 -4e-5,-0.0117 0,-0.0117 0.70303,0.3994 1.39626,0.80872 2.07617,1.23242 -1.98436,0.1228 -2.81045,1.37108 -4.23828,3.36328 2.15333,-1.3895 3.94763,-0.90406 4.89453,-2.94726 1.78451,1.1582 3.4425,2.44939 4.85547,3.99609 l 0,8.73633 0.0664,0 c -0.29808,0 -0.53711,0.23901 -0.53711,0.53711 0,0.2737 0.20485,0.49039 0.46875,0.52539 l 0,3.76172 c -0.61198,0.29681 -1.2242,0.59152 -1.83594,0.88867 0.90711,-1.0497 0.35511,-2.24516 0.91211,-3.97656 -1.32446,1.6141 -2.1394,2.50073 -1.57812,4.30273 0.2062,-0.8799 0.46031,-1.42856 0.71874,-1.94336 -0.31428,0.7677 -0.42539,1.26134 -0.4375,1.80274 -0.0939,0.0456 -0.18745,0.0936 -0.28124,0.14062 -1.49531,0.7399 -2.98448,1.54537 -4.45704,2.54297 1.2012,-1.2907 0.49868,-2.75333 1.1875,-4.89453 -1.60439,1.9553 -2.5932,3.02734 -1.91211,5.21094 0.24983,-1.0669 0.55792,-1.73157 0.8711,-2.35547 -0.40411,0.987 -0.53602,1.59908 -0.53516,2.30468 -0.22103,0.15562 -0.44006,0.33269 -0.66015,0.5 -0.25325,-0.33709 -0.55104,-0.69569 -0.88086,-1.09765 0.18663,0.58012 0.24122,1.08414 0.27539,1.55859 -0.40198,0.3263 -0.80272,0.67044 -1.20117,1.03516 l 0,-2.80469 c 0.2642,-0.035 0.4707,-0.25149 0.4707,-0.52539 0,-0.2981 -0.24099,-0.53711 -0.53906,-0.53711 l 0.0703,0 0,-9.20703 c 0.0594,-0.0325 0.11831,-0.0652 0.17773,-0.0977 -0.0592,0.0289 -0.11852,0.0571 -0.17773,0.0859 l 0,-3.20898 c 0.26389,-0.0349 0.46875,-0.25169 0.46875,-0.52539 0,-0.2981 -0.23904,-0.53711 -0.53711,-0.53711 l 0.0664,0 0,-8.73633 c 0.0744,-0.0814 0.15669,-0.15435 0.23242,-0.23438 z m -19.67383,2.50196 c 0.10142,0.0642 0.204,0.1264 0.30469,0.1914 -0.70046,0.193 -1.28526,0.49537 -2.16407,1.16407 0.49012,-0.4362 1.03209,-0.87877 1.85938,-1.35547 z m 24,0 c 0.10142,0.0642 0.204,0.1264 0.30469,0.1914 -0.70046,0.193 -1.28526,0.49537 -2.16407,1.16407 0.49012,-0.4362 1.03209,-0.87877 1.85938,-1.35547 z m -14.55664,6.63281 c 0.0996,0.0612 0.20364,0.11792 0.30273,0.17969 -0.10832,0.007 -0.20103,0.0296 -0.30273,0.043 l 0,-0.22266 z m 0.55664,0.34766 c 0.10142,0.0642 0.204,0.1264 0.30469,0.1914 -0.29672,0.0818 -0.57499,0.1915 -0.86133,0.33203 l 0,-0.1582 c 0.18258,-0.12133 0.33873,-0.23967 0.55664,-0.36523 z m 0.40234,0.24804 c 1.78451,1.1581 3.4425,2.4494 4.85547,3.9961 l 0,1.60742 c -0.99154,0.53097 -1.98101,1.092 -2.96094,1.75586 1.2012,-1.2907 0.49868,-2.75333 1.1875,-4.89453 -1.60439,1.9553 -2.5932,3.02733 -1.91211,5.21093 0.24983,-1.0669 0.55792,-1.73156 0.8711,-2.35546 -0.40411,0.98699 -0.53602,1.59908 -0.53516,2.30468 -0.82908,0.5836 -1.65174,1.2502 -2.46679,1.9961 l 0,-2.80469 c 0.2642,-0.035 0.4707,-0.25149 0.4707,-0.52539 0,-0.2981 -0.24098,-0.53711 -0.53906,-0.53711 l 0.0703,0 0,-4.56641 c 0.3744,-0.2704 0.70073,-0.63025 0.95898,-1.1875 z m 4.85547,5.91016 0,0.22461 c -0.10227,-0.0135 -0.19573,-0.0362 -0.30469,-0.043 0.0999,-0.0623 0.20424,-0.12 0.30469,-0.18164 z m -0.55859,0.35156 c 0.21878,0.12607 0.3754,0.24539 0.55859,0.36719 l 0,0.1582 c -0.28719,-0.14111 -0.56575,-0.25196 -0.86328,-0.33398 0.10069,-0.065 0.20326,-0.12741 0.30469,-0.19141 z m -0.40235,0.2461 c 0.25872,0.55825 0.58567,0.91891 0.96094,1.18945 l 0,5.0332 0.0664,0 c -0.29808,0 -0.53711,0.23901 -0.53711,0.53711 0,0.2737 0.20485,0.49039 0.46875,0.52539 l 0,12.42774 0.0703,0 c -0.29808,0 -0.53906,0.23901 -0.53906,0.53711 0,0.27389 0.2065,0.49039 0.4707,0.52539 l 0,2.80468 c -0.81505,-0.746 -1.63772,-1.41239 -2.4668,-1.99609 8.7e-4,-0.7057 -0.13105,-1.31769 -0.53515,-2.30469 0.31318,0.6239 0.62127,1.28857 0.87109,2.35547 0.6811,-2.1836 -0.30771,-3.25368 -1.91211,-5.20898 0.68883,2.1412 -0.0137,3.60187 1.1875,4.89257 -0.97941,-0.66345 -1.96795,-1.22507 -2.95898,-1.75585 l 0,-5.76758 c 0.26389,-0.0349 0.46875,-0.25169 0.46875,-0.52539 0,-0.2981 -0.23904,-0.53711 -0.53711,-0.53711 l 0.0664,0 0,-8.73633 c 1.41295,-1.5467 3.07096,-2.8379 4.85546,-3.99609 z m -14.42578,1.24414 c 0.82729,0.4767 1.36926,0.91926 1.85938,1.35546 -0.87881,-0.6687 -1.46361,-0.97096 -2.16406,-1.16406 0.10068,-0.065 0.20326,-0.1272 0.30468,-0.1914 z m 29.38477,2.85351 0,8.63867 0.0703,0 c -0.29808,0 -0.53906,0.23901 -0.53906,0.53711 0,0.2739 0.2065,0.49039 0.4707,0.52539 l 0,2.80469 c -0.81505,-0.746 -1.63772,-1.41239 -2.4668,-1.99609 8.6e-4,-0.7056 -0.13105,-1.31769 -0.53515,-2.30469 0.31318,0.6239 0.62127,1.28857 0.87109,2.35547 0.6811,-2.1836 -0.30771,-3.25564 -1.91211,-5.21094 0.68883,2.1412 -0.0137,3.60383 1.1875,4.89453 -1.47255,-0.9976 -2.96174,-1.80307 -4.45703,-2.54297 -0.0938,-0.0466 -0.18735,-0.0946 -0.28125,-0.14062 -0.0121,-0.5414 -0.12322,-1.03504 -0.4375,-1.80274 0.25842,0.5148 0.51253,1.06346 0.71875,1.94336 0.36354,-1.1672 0.14359,-1.95132 -0.41211,-2.79687 0.87353,-0.72488 1.79707,-1.39614 2.76367,-2.02344 0.94689,2.0432 2.7412,1.55777 4.89454,2.94727 -1.42784,-1.9922 -2.25393,-3.24049 -4.23829,-3.36328 0.6799,-0.42371 1.37314,-0.83303 2.07618,-1.23243 4e-5,0 -5e-5,-2.3e-4 0,0.01 0.006,0 0.008,-0.0156 0.0137,-0.0156 0.73124,-0.41538 1.47204,-0.82112 2.21289,-1.22656 z m -4.55664,2.63672 c 0.82728,0.4767 1.36925,0.91927 1.85937,1.35547 -0.87881,-0.6687 -1.4636,-0.97096 -2.16406,-1.16406 0.10069,-0.065 0.20326,-0.12741 0.30469,-0.19141 z m -4.00781,2.99805 c 0.0448,0.64954 0.13236,1.21342 0.58789,1.74023 -0.52503,-0.25503 -1.0508,-0.50777 -1.57618,-0.76172 0.31955,-0.33624 0.64664,-0.66532 0.98829,-0.97851 z m -20.69141,3.51172 c 0.10142,0.0642 0.204,0.1264 0.30469,0.1914 -0.70046,0.1931 -1.28526,0.49536 -2.16407,1.16406 0.49012,-0.4362 1.03209,-0.87876 1.85938,-1.35546 z m 24,0 c 0.10142,0.0642 0.204,0.1264 0.30469,0.1914 -0.70046,0.1931 -1.28526,0.49536 -2.16407,1.16406 0.49012,-0.4362 1.03209,-0.87876 1.85938,-1.35546 z m -14.55664,6.6289 c 0.0997,0.0612 0.2036,0.11791 0.30273,0.17969 -0.10832,0.007 -0.20103,0.0296 -0.30273,0.043 l 0,-0.22266 z m 0.55664,0.35156 c 0.10142,0.0641 0.204,0.12641 0.30469,0.19141 -0.29672,0.0818 -0.57499,0.19148 -0.86133,0.33203 l 0,-0.1582 c 0.18258,-0.12133 0.33873,-0.23968 0.55664,-0.36524 z m 0.40234,0.24414 c 1.78451,1.15811 3.4425,2.4493 4.85547,3.9961 l 0,1.60742 c -0.99155,0.531 -1.98101,1.092 -2.96094,1.75586 1.2012,-1.2907 0.49868,-2.75333 1.1875,-4.89453 -1.60439,1.9553 -2.5932,3.02734 -1.91211,5.21094 0.24983,-1.0669 0.55792,-1.73157 0.8711,-2.35547 -0.40411,0.987 -0.53602,1.59908 -0.53516,2.30468 -0.82908,0.58371 -1.65176,1.2501 -2.46679,1.9961 l 0,-2.80469 c 0.2642,-0.035 0.4707,-0.25149 0.4707,-0.52539 0,-0.2981 -0.24099,-0.53711 -0.53906,-0.53711 l 0.0703,0 0,-4.56641 c 0.3744,-0.27041 0.70073,-0.63027 0.95898,-1.1875 z m -6.89843,2.00391 c -1.32446,1.6141 -2.13939,2.50074 -1.57813,4.30274 0.20622,-0.8799 0.46033,-1.42661 0.71875,-1.94141 -0.31428,0.7676 -0.42545,1.25948 -0.4375,1.80078 -0.0939,0.046 -0.18742,0.094 -0.28125,0.14063 -0.083,0.041 -0.1651,0.0894 -0.24805,0.13085 l 0.19141,0.11133 c 0.11194,-0.0644 0.21957,-0.13336 0.33203,-0.19726 4e-5,0 -4e-5,-5.4e-4 0,0.01 0.006,0 0.008,-0.0116 0.0137,-0.0156 0.85203,-0.4839 1.71426,-0.95809 2.57813,-1.42969 -0.73315,0.3581 -1.46786,0.70825 -2.20117,1.06445 0.90765,-1.0498 0.3551,-2.24506 0.91211,-3.97656 z m -4.84766,1.95313 c -0.14045,0.17116 -0.24469,0.30785 -0.375,0.46679 l 0.2207,0.13086 c 0.0436,-0.19504 0.0876,-0.39031 0.1543,-0.59765 z m 16.60156,1.95507 0,0.22461 c -0.1023,-0.0135 -0.19568,-0.0362 -0.30469,-0.043 0.0999,-0.0622 0.20424,-0.12 0.30469,-0.18165 z m -0.55859,0.35352 c 0.21878,0.12607 0.3754,0.24537 0.55859,0.36719 l 0,0.1582 c -0.28719,-0.14112 -0.56575,-0.25196 -0.86328,-0.33398 0.10069,-0.065 0.20326,-0.12741 0.30469,-0.19141 z" id="path7089" style="color:#000000;clip-rule:nonzero;display:inline;overflow:visible;visibility:visible;opacity:1;isolation:auto;mix-blend-mode:normal;color-interpolation:sRGB;color-interpolation-filters:linearRGB;solid-color:#000000;solid-opacity:1;fill:#00c800;fill-opacity:1;fill-rule:nonzero;stroke:none;stroke-width:0.69999999;stroke-linecap:round;stroke-linejoin:round;stroke-miterlimit:4;stroke-dasharray:none;stroke-dashoffset:0;stroke-opacity:1;color-rendering:auto;image-rendering:auto;shape-rendering:auto;text-rendering:auto;enable-background:accumulate" transform="translate(0,988.3622)"/><path d="m -183.17578,177.74414 0,8.49024 3.01172,0 0,-6.70508 -3.01172,-1.78516 z m -10,2.58594 0,12.41406 3.01172,0 0,-12.41406 -3.01172,0 z m -11.81641,5.38476 -3.01172,1.78516 0,6.73438 3.01172,0 0,-8.51954 z m 35.81641,0.32813 0,6.70117 3.01172,0 0,-4.91602 -3.01172,-1.78515 z m -14,1.26758 0,12.41406 3.01172,0 0,-12.41406 -3.01172,0 z m -10,6.50976 0,12.41407 3.01172,0 0,-12.41407 -3.01172,0 z m 24,0 0,12.41407 3.01172,0 0,-12.41407 -3.01172,0 z m -38.82813,1.49024 0,12.41406 3.01172,0 0,-12.41406 -3.01172,0 z m 24.82813,5.49023 0,12.41406 3.01172,0 0,-12.41406 -3.01172,0 z m -10,6.50977 0,12.41406 3.01172,0 0,-12.41406 -3.01172,0 z m 24,0 0,12.41406 3.01172,0 0,-12.41406 -3.01172,0 z m -38.82813,1.49023 0,12.41406 3.01172,0 0,-12.41406 -3.01172,0 z m 24.82813,5.49024 0,12.41406 3.01172,0 0,-12.41406 -3.01172,0 z m -10,6.50976 0,12.41406 3.01172,0 0,-12.41406 -3.01172,0 z m 24,0 0,8.22656 3.01172,-1.78515 0,-6.44141 -3.01172,0 z m -38.82813,1.49024 0,5.27929 3.01172,1.78516 0,-7.06445 -3.01172,0 z m 24.82813,5.49023 0,9.54492 3.01172,-1.78515 0,-7.75977 -3.01172,0 z m -10,6.50977 0,2.06836 3.01172,1.78515 0,-3.85351 -3.01172,0 z" id="path7091" style="color:#000000;clip-rule:nonzero;display:inline;overflow:visible;visibility:visible;opacity:1;isolation:auto;mix-blend-mode:normal;color-interpolation:sRGB;color-interpolation-filters:linearRGB;solid-color:#000000;solid-opacity:1;fill:#00e800;fill-opacity:1;fill-rule:nonzero;stroke:none;stroke-width:0.69999999;stroke-linecap:round;stroke-linejoin:round;stroke-miterlimit:4;stroke-dasharray:none;stroke-dashoffset:0;stroke-opacity:1;color-rendering:auto;image-rendering:auto;shape-rendering:auto;text-rendering:auto;enable-background:accumulate" transform="translate(0,988.3622)"/><path d="m -182.35938,178.22852 0,8.00586 1.37891,0 0,-7.18946 -1.37891,-0.8164 z m -10,2.10156 0,12.41406 1.37891,0 0,-12.41406 -1.37891,0 z m -13.44921,5.86914 -1.37891,0.81836 0,7.2168 1.37891,0 0,-8.03516 z m 37.44921,0.32617 0,6.21875 1.37891,0 0,-5.40039 -1.37891,-0.81836 z m -14,0.78516 0,12.41406 1.37891,0 0,-12.41406 -1.37891,0 z m -10,6.50976 0,12.41407 1.37891,0 0,-12.41407 -1.37891,0 z m 24,0 0,12.41407 1.37891,0 0,-12.41407 -1.37891,0 z m -38.82812,1.49024 0,12.41406 1.37891,0 0,-12.41406 -1.37891,0 z m 24.82812,5.49023 0,12.41406 1.37891,0 0,-12.41406 -1.37891,0 z m -10,6.50977 0,12.41406 1.37891,0 0,-12.41406 -1.37891,0 z m 24,0 0,12.41406 1.37891,0 0,-12.41406 -1.37891,0 z m -38.82812,1.49023 0,12.41406 1.37891,0 0,-12.41406 -1.37891,0 z m 24.82812,5.49024 0,12.41406 1.37891,0 0,-12.41406 -1.37891,0 z m -10,6.50976 0,12.41406 1.37891,0 0,-12.41406 -1.37891,0 z m 24,0 0,7.74414 1.37891,-0.81836 0,-6.92578 -1.37891,0 z m -38.82812,1.49024 0,5.76171 1.37891,0.81836 0,-6.58007 -1.37891,0 z m 24.82812,5.49023 0,9.06055 1.37891,-0.81641 0,-8.24414 -1.37891,0 z m -10,6.50977 0,2.55078 1.37891,0.81836 0,-3.36914 -1.37891,0 z" id="path7093" style="color:#000000;clip-rule:nonzero;display:inline;overflow:visible;visibility:visible;opacity:1;isolation:auto;mix-blend-mode:normal;color-interpolation:sRGB;color-interpolation-filters:linearRGB;solid-color:#000000;solid-opacity:1;fill:#4df74d;fill-opacity:1;fill-rule:nonzero;stroke:none;stroke-width:0.69999999;stroke-linecap:round;stroke-linejoin:round;stroke-miterlimit:4;stroke-dasharray:none;stroke-dashoffset:0;stroke-opacity:1;color-rendering:auto;image-rendering:auto;shape-rendering:auto;text-rendering:auto;enable-background:accumulate" transform="translate(0,988.3622)"/></g><path d="M 30,233.87891 A 14.292706,13.049894 0 0 0 15.707031,246.92773 14.292706,13.049894 0 0 0 30,259.97852 14.292706,13.049894 0 0 0 44.292969,246.92773 14.292706,13.049894 0 0 0 30,233.87891 Z m 0,29.60742 a 15.162368,15.162368 0 0 0 -14.339844,10.28711 l 11.91211,7.06054 c 0.771794,0.4576 1.651943,0.68702 2.542968,0.66602 0.813205,-0.02 1.608115,-0.24842 2.3125,-0.66602 l 11.910157,-7.06054 A 15.162368,15.162368 0 0 0 30,263.48633 Z" id="ellipse6237" style="color:#000000;clip-rule:nonzero;display:inline;overflow:visible;visibility:visible;opacity:1;isolation:auto;mix-blend-mode:normal;color-interpolation:sRGB;color-interpolation-filters:linearRGB;solid-color:#000000;solid-opacity:1;fill:#ffffff;fill-opacity:1;fill-rule:nonzero;stroke:none;stroke-width:1.00000012;stroke-linecap:round;stroke-linejoin:round;stroke-miterlimit:4;stroke-dasharray:none;stroke-dashoffset:0;stroke-opacity:1;color-rendering:auto;image-rendering:auto;shape-rendering:auto;text-rendering:auto;enable-background:accumulate" transform="translate(0,988.3622)"/><path d="m 30,218.00195 c -0.92691,0 -1.854884,0.24543 -2.683594,0.73633 l -14.761718,8.75 c -0.574221,0.3398 -0.0644,1.20123 0.509765,0.86133 l 14.761719,-8.75 c 1.34768,-0.7982 2.998223,-0.7982 4.345703,0 l 22.367187,13.25781 c 1.34746,0.7993 2.183394,2.27882 2.183594,3.88672 l 0,26.51367 c -2.8e-4,1.6077 -0.836244,3.08802 -2.183594,3.88672 l -5.394531,3.19727 c -2.009084,-5.3277 -6.185119,-9.67172 -11.623047,-11.82032 4.311993,-2.3518 7.220704,-6.64819 7.220704,-11.59179 0,-2.2606 -0.615201,-4.38491 -1.685547,-6.25391 0.0076,0 0.01599,-0.01 0.02344,-0.01 1.126662,-0.72 1.811238,-1.96574 1.8125,-3.30274 -1.5e-5,-2.1602 -1.765473,-3.92383 -3.925781,-3.92383 l -0.002,0 c -1.388083,0 -2.668945,0.74406 -3.371094,1.93946 -2.222802,-1.2283 -4.81609,-1.94727 -7.59375,-1.94727 -2.77669,0 -5.369507,0.71781 -7.591797,1.94531 -0.70218,-1.1953 -1.984967,-1.93635 -3.373047,-1.93945 l -0.002,0 c -2.1603,0 -3.925761,1.76363 -3.925781,3.92383 10e-4,1.337 0.68584,2.58273 1.8125,3.30273 0.007,0 0.01594,0.01 0.02344,0.01 -1.07088,1.8694 -1.685547,3.99466 -1.685547,6.25586 0,4.9392 2.903335,9.23273 7.208985,11.58593 -5.43621,2.15201 -9.611338,6.49642 -11.617188,11.82422 l -5.3906246,-3.19531 c -1.34656,-0.7992 -2.1816207,-2.27952 -2.1816406,-3.88672 l 0,-4.7832 c 0.004,-0.2822 -0.2255425,-0.51221 -0.5078126,-0.50781 -0.2761499,0 -0.4965174,0.23171 -0.4921874,0.50781 l 0,4.7832 c 3e-5,1.9541 1.014775,3.76535 2.671875,4.74805 l 22.3671872,13.25781 c 0.77722,0.4602 1.657161,0.71423 2.556641,0.73633 0.98498,0.023 1.956814,-0.23183 2.808594,-0.73633 l 1.638671,-0.9707 c 0.57422,-0.3398 0.06445,-1.20123 -0.509765,-0.86133 l -1.638672,0.97266 c -0.69204,0.4099 -1.478211,0.6145 -2.275391,0.5957 -0.72731,-0.018 -1.438272,-0.22346 -2.070312,-0.59766 l -11.984375,-7.10351 c 2.21772,-5.8784 7.839913,-9.8027 14.158203,-9.8125 6.317336,0.01 11.938603,3.9349 14.15625,9.8125 l -5.71875,3.39062 c -0.612883,0.3292 -0.07296,1.23938 0.509766,0.85938 l 16.101562,-9.54297 c 1.65742,-0.9824 2.673488,-2.79405 2.673828,-4.74805 l 0,-26.51367 c -2.4e-4,-1.9542 -1.016708,-3.76505 -2.673828,-4.74805 L 32.681641,218.73828 C 31.853011,218.24738 30.92691,218.00195 30,218.00195 Z m -18.867188,10.41211 0,0.004 c -0.0189,-4e-4 -0.03784,2e-4 -0.05664,0 -0.0782,0.01 -0.153823,0.0293 -0.220703,0.0703 L 9.875,229.07031 c -0.61302,0.3291 -0.073004,1.23958 0.509766,0.85938 l 0.980468,-0.58008 c 0.44216,-0.2491 0.274908,-0.92225 -0.232422,-0.93555 z m -3.0722651,1.79297 0,0.002 c -0.0782,0.01 -0.1538231,0.0293 -0.2207031,0.0703 l -2.890625,1.71289 c -1.65654,0.9832 -2.672405,2.79324 -2.671875,4.74804 l 0,19.60352 c -0.01,0.6761 1.00956,0.6761 1,0 l 0,-19.60352 c -4.401e-4,-1.6082 0.8343806,-3.08701 2.1816406,-3.88671 l 2.890625,-1.7129 c 0.46801,-0.2643 0.2464175,-0.97999 -0.2890625,-0.93359 z M 30,234.33008 c 7.671593,0 13.841797,5.65871 13.841797,12.59961 0,6.9409 -6.170204,12.59961 -13.841797,12.59961 -7.67159,0 -13.841797,-5.65871 -13.841797,-12.59961 0,-6.9409 6.170207,-12.59961 13.841797,-12.59961 z m -4.708984,7.12695 c -0.624007,-0.0123 -1.350256,0.17295 -1.923828,0.46875 -1.360604,0.702 -2.334008,2.16698 -2.333985,3.58008 3.9e-5,1.4638 1.187504,2.99383 2.650391,3.04883 3.007674,0.1146 4.109337,-2.90134 4.109375,-4.36524 -0.01265,-1.3754 -0.516845,-2.23769 -1.921875,-2.65039 -0.175705,-0.0516 -0.372076,-0.0779 -0.580078,-0.082 z m 9.417968,0 c -0.208002,0.004 -0.404372,0.0304 -0.580078,0.082 -1.405029,0.4127 -1.909223,1.27499 -1.921875,2.65039 3.8e-5,1.4639 1.101701,4.47984 4.109375,4.36524 1.462887,-0.055 2.650352,-1.58503 2.650391,-3.04883 2.3e-5,-1.4131 -0.97338,-2.87808 -2.333985,-3.58008 -0.573573,-0.2958 -1.299821,-0.48104 -1.923828,-0.46875 z m -9.371093,3.0625 a 1.4867759,1.3785107 0 0 1 1.486328,1.37891 1.4867759,1.3785107 0 0 1 -1.486328,1.3789 1.4867759,1.3785107 0 0 1 -1.486329,-1.3789 1.4867759,1.3785107 0 0 1 1.486329,-1.37891 z m 9.324218,0 a 1.4867759,1.3785107 0 0 1 1.486329,1.37891 1.4867759,1.3785107 0 0 1 -1.486329,1.3789 1.4867759,1.3785107 0 0 1 -1.486328,-1.3789 1.4867759,1.3785107 0 0 1 1.486328,-1.37891 z M 30,249.69922 c -1.153107,0 -2.168016,0.71766 -2.167969,1.69726 6.1e-5,0.9794 1.014929,1.69922 2.167969,1.69922 1.153041,0 2.167908,-0.71982 2.167969,-1.69922 4.7e-5,-0.9796 -1.014861,-1.69726 -2.167969,-1.69726 z m 0.304688,0.64258 c 0.103844,-0.0113 0.215174,-0.0103 0.328124,0.002 0.451807,0.0489 0.8234,0.28418 0.78711,0.54687 -0.03632,0.26301 -0.460331,0.41229 -0.91211,0.36329 -0.451775,-0.049 -0.823379,-0.28408 -0.787109,-0.54688 0.0272,-0.1971 0.272448,-0.33143 0.583985,-0.36523 z M 30,254.30859 c -0.76425,0 -1.46022,0.45185 -1.826172,1.15235 a 0.40011671,0.40011671 0 0 0 0.708984,0.37109 c 0.241079,-0.4615 0.66738,-0.72461 1.117188,-0.72461 0.449808,-1e-4 0.876109,0.26311 1.117188,0.72461 a 0.40011671,0.40011671 0 0 0 0.708984,-0.37109 C 31.46022,254.76044 30.76425,254.30859 30,254.30859 Z m 6.837891,23.41211 c -0.09574,0 -0.189962,0.0242 -0.271485,0.0742 l -0.757812,0.44922 c -0.323811,0.187 -0.426427,0.53503 -0.291016,0.76953 0.136843,0.2173 0.432068,0.30896 0.677734,0.16406 l 0.882813,-0.52343 c 0.440114,-0.2528 0.267229,-0.9247 -0.240234,-0.9336 z" id="path6243" style="color:#000000;font-style:normal;font-variant:normal;font-weight:normal;font-stretch:normal;font-size:medium;line-height:normal;font-family:sans-serif;text-indent:0;text-align:start;text-decoration:none;text-decoration-line:none;text-decoration-style:solid;text-decoration-color:#000000;letter-spacing:normal;word-spacing:normal;text-transform:none;direction:ltr;block-progression:tb;writing-mode:lr-tb;baseline-shift:baseline;text-anchor:start;white-space:normal;clip-rule:nonzero;display:inline;overflow:visible;visibility:visible;opacity:1;isolation:auto;mix-blend-mode:normal;color-interpolation:sRGB;color-interpolation-filters:linearRGB;solid-color:#000000;solid-opacity:1;fill:#000000;fill-opacity:1;fill-rule:nonzero;stroke:none;stroke-width:0.60000002;stroke-linecap:round;stroke-linejoin:round;stroke-miterlimit:4;stroke-dasharray:none;stroke-dashoffset:0;stroke-opacity:1;color-rendering:auto;image-rendering:auto;shape-rendering:auto;text-rendering:auto;enable-background:accumulate" transform="translate(0,988.3622)"/></g></g></svg>