<svg id="svg" version="1.1" xmlns="http://www.w3.org/2000/svg" xmlns:xlink="http://www.w3.org/1999/xlink" width="400" height="400" viewBox="0, 0, 400,400"><g id="svgg"><path id="path0" d="M55.480 49.206 C 51.738 50.628,49.380 53.160,48.214 57.006 C 47.407 59.666,47.275 247.786,48.078 250.554 C 49.120 254.144,51.331 256.711,54.800 258.356 L 57.000 259.400 200.362 259.254 C 325.895 259.125,343.903 259.033,345.162 258.514 C 348.302 257.220,350.917 254.320,351.939 251.000 C 352.325 249.747,352.407 228.532,352.316 153.200 L 352.200 57.000 351.225 55.092 C 350.029 52.751,347.887 50.554,346.009 49.742 C 345.234 49.407,344.287 48.968,343.905 48.766 C 342.364 47.953,57.633 48.388,55.480 49.206 M180.038 95.925 C 181.906 96.552,200.864 108.865,228.738 127.557 C 231.234 129.231,233.618 130.796,234.036 131.036 C 234.453 131.275,235.111 131.733,235.497 132.053 C 235.884 132.373,236.695 132.882,237.300 133.185 C 237.905 133.488,238.400 133.885,238.400 134.068 C 238.400 134.250,238.642 134.400,238.938 134.400 C 239.234 134.400,239.802 134.760,240.200 135.200 C 240.598 135.640,241.138 136.000,241.400 136.000 C 241.662 136.000,242.202 136.360,242.600 136.800 C 242.998 137.240,243.469 137.600,243.647 137.600 C 244.120 137.600,254.008 144.332,255.314 145.543 C 259.747 149.655,259.697 157.902,255.213 162.229 C 253.865 163.529,230.167 179.600,229.597 179.600 C 229.447 179.600,228.998 179.960,228.600 180.400 C 228.202 180.840,227.662 181.200,227.400 181.200 C 227.138 181.200,226.598 181.560,226.200 182.000 C 225.802 182.440,225.262 182.800,225.000 182.800 C 224.738 182.800,224.198 183.160,223.800 183.600 C 223.402 184.040,222.862 184.400,222.600 184.400 C 222.338 184.400,221.798 184.760,221.400 185.200 C 221.002 185.640,220.493 186.000,220.270 186.000 C 220.046 186.000,219.533 186.299,219.129 186.664 C 218.725 187.030,218.053 187.525,217.635 187.764 C 217.218 188.004,215.284 189.269,213.338 190.574 C 210.419 192.534,194.880 202.796,192.706 204.200 C 192.366 204.420,189.955 206.023,187.349 207.762 C 181.123 211.916,180.043 212.381,176.600 212.387 C 171.667 212.396,167.298 209.447,165.627 204.981 C 164.504 201.979,164.305 106.707,165.416 103.550 C 167.664 97.157,173.946 93.882,180.038 95.925 M54.600 307.420 C 44.971 312.189,45.604 325.473,55.628 329.010 C 57.077 329.521,96.400 329.991,96.400 329.497 C 96.400 329.441,96.212 328.766,95.981 327.997 C 94.060 321.584,94.051 315.670,95.949 307.900 L 96.316 306.400 76.458 306.415 L 56.600 306.429 54.600 307.420 M163.349 307.500 C 163.486 308.105,163.863 309.770,164.185 311.200 C 164.508 312.630,164.772 315.690,164.772 318.000 C 164.772 320.310,164.508 323.370,164.185 324.800 C 163.863 326.230,163.486 327.895,163.349 328.500 L 163.100 329.600 253.090 329.600 C 320.248 329.600,343.426 329.482,344.440 329.137 C 354.899 325.572,355.053 311.357,344.681 306.883 C 343.819 306.511,322.902 306.400,253.331 306.400 L 163.100 306.400 163.349 307.500 " stroke="none" fill="#fb5e54" fill-rule="evenodd"></path><path id="path1" d="M6.900 0.282 C 6.405 0.378,6.000 0.623,6.000 0.828 C 6.000 1.033,5.725 1.200,5.389 1.200 C 4.614 1.200,1.200 4.587,1.200 5.356 C 1.200 5.674,0.975 6.008,0.700 6.100 C -0.036 6.345,-0.036 393.655,0.700 393.900 C 0.975 393.992,1.200 394.326,1.200 394.644 C 1.200 395.395,4.605 398.800,5.356 398.800 C 5.674 398.800,6.008 399.025,6.100 399.300 C 6.233 399.698,26.069 399.821,103.133 399.903 L 200.000 400.006 200.000 365.003 L 200.000 330.000 271.788 330.000 L 343.576 330.000 345.688 329.029 C 348.884 327.559,352.889 322.750,352.285 321.108 C 352.183 320.829,351.959 321.140,351.789 321.800 C 351.040 324.700,347.714 328.021,344.440 329.137 C 343.426 329.482,320.257 329.600,253.130 329.600 L 163.180 329.600 162.769 330.700 C 162.060 332.593,159.706 337.121,159.181 337.600 C 159.060 337.710,158.526 338.430,157.993 339.200 C 150.421 350.151,134.570 355.736,121.038 352.220 C 117.267 351.240,111.154 348.554,109.746 347.259 C 109.336 346.881,108.550 346.262,108.000 345.883 C 104.535 343.495,99.532 337.201,97.602 332.800 C 97.072 331.590,96.472 330.375,96.270 330.100 C 95.984 329.712,91.579 329.600,76.601 329.600 C 60.611 329.600,57.014 329.499,55.628 329.010 C 45.722 325.515,44.966 312.266,54.400 307.508 C 56.182 306.609,56.400 306.598,76.157 306.400 C 93.337 306.228,96.160 306.117,96.451 305.600 C 96.637 305.270,97.234 304.010,97.777 302.800 C 108.386 279.187,143.414 275.697,157.994 296.800 C 158.526 297.570,159.060 298.290,159.181 298.400 C 159.792 298.957,162.769 304.783,162.787 305.457 C 162.813 306.372,165.493 306.400,253.814 306.400 C 323.008 306.400,343.819 306.511,344.681 306.883 C 348.073 308.346,351.075 311.437,351.789 314.200 C 351.959 314.860,352.183 315.171,352.285 314.892 C 352.889 313.250,348.884 308.441,345.688 306.971 L 343.576 306.000 271.788 306.000 L 200.000 306.000 200.000 282.800 L 200.000 259.600 271.939 259.600 C 336.571 259.600,344.005 259.536,345.139 258.971 C 346.810 258.137,346.756 257.840,345.062 258.548 C 343.927 259.022,321.975 259.129,200.362 259.254 L 57.000 259.400 54.800 258.356 C 51.331 256.711,49.120 254.144,48.078 250.554 C 47.275 247.786,47.407 59.666,48.214 57.006 C 49.407 53.071,51.752 50.607,55.662 49.177 C 57.751 48.414,60.294 48.398,200.594 48.301 C 279.137 48.247,311.135 48.156,271.700 48.100 L 200.000 47.998 200.000 23.999 L 200.000 0.000 103.900 0.054 C 51.045 0.084,7.395 0.187,6.900 0.282 M348.319 51.198 C 349.821 52.653,351.273 54.841,351.906 56.600 C 352.143 57.260,352.351 57.569,352.368 57.287 C 352.466 55.704,349.927 51.743,348.075 50.590 C 347.139 50.007,347.171 50.086,348.319 51.198 M352.597 154.000 C 352.597 206.910,352.643 228.555,352.700 202.100 C 352.757 175.645,352.757 132.355,352.700 105.900 C 352.643 79.445,352.597 101.090,352.597 154.000 M351.789 251.400 C 351.370 253.022,349.490 255.713,347.902 256.965 C 347.186 257.530,346.789 257.993,347.021 257.996 C 348.375 258.010,352.742 251.947,352.281 250.694 C 352.180 250.422,351.959 250.740,351.789 251.400 M352.520 318.000 C 352.520 319.210,352.595 319.705,352.687 319.100 C 352.778 318.495,352.778 317.505,352.687 316.900 C 352.595 316.295,352.520 316.790,352.520 318.000 " stroke="none" fill="#64749c" fill-rule="evenodd"></path><path id="path2" d="M173.470 95.802 C 169.763 96.821,167.010 99.392,165.571 103.181 C 164.617 105.689,164.341 200.527,165.278 203.754 C 166.786 208.951,171.280 212.400,176.542 212.400 C 180.249 212.400,181.154 211.916,195.543 202.232 C 202.598 197.485,208.542 193.600,208.752 193.600 C 208.962 193.600,209.193 193.451,209.267 193.268 C 209.340 193.085,215.340 189.015,222.600 184.224 C 229.860 179.433,235.860 175.352,235.933 175.156 C 236.007 174.960,236.231 174.800,236.433 174.800 C 237.179 174.800,254.246 163.089,255.472 161.736 C 259.647 157.126,259.402 149.821,254.929 145.536 C 254.088 144.730,247.190 139.974,239.600 134.967 C 232.010 129.959,225.740 125.713,225.667 125.531 C 225.593 125.349,225.379 125.200,225.191 125.200 C 225.002 125.200,215.072 118.664,203.124 110.677 C 178.402 94.149,178.785 94.341,173.470 95.802 M123.600 283.580 C 112.852 285.617,103.243 292.854,98.613 302.400 C 97.812 304.050,96.913 305.850,96.615 306.400 C 93.418 312.300,94.151 324.582,98.187 332.739 C 111.559 359.760,148.367 359.563,161.426 332.400 C 164.055 326.932,164.800 323.753,164.800 318.000 C 164.800 313.441,164.256 310.327,162.809 306.600 C 162.095 304.762,159.781 300.190,159.502 300.067 C 159.336 299.993,159.200 299.749,159.200 299.524 C 159.200 297.348,150.159 289.081,145.200 286.724 C 138.956 283.756,129.745 282.415,123.600 283.580 " stroke="none" fill="#edeff9" fill-rule="evenodd"></path><path id="path3" d="M200.000 23.994 L 200.000 47.994 271.900 48.097 L 343.800 48.200 345.783 49.183 C 348.312 50.437,350.644 52.769,351.740 55.140 L 352.600 57.000 352.600 154.000 L 352.600 251.000 351.613 252.933 C 350.376 255.353,348.375 257.317,345.832 258.604 L 343.864 259.600 271.932 259.600 L 200.000 259.600 200.000 282.800 L 200.000 306.000 271.788 306.000 L 343.576 306.000 345.688 306.971 C 355.065 311.285,355.065 324.715,345.688 329.029 L 343.576 330.000 271.788 330.000 L 200.000 330.000 200.000 365.005 L 200.000 400.009 297.166 399.905 C 393.752 399.801,394.337 399.795,395.072 399.000 C 395.479 398.560,396.157 398.008,396.579 397.773 C 397.001 397.539,397.539 397.001,397.773 396.579 C 398.008 396.157,398.560 395.479,399.000 395.072 C 400.265 393.903,400.265 6.097,399.000 4.928 C 398.560 4.521,398.008 3.843,397.773 3.421 C 397.539 2.999,397.001 2.461,396.579 2.227 C 396.157 1.992,395.479 1.440,395.072 1.000 C 394.337 0.205,393.753 0.199,297.166 0.097 L 200.000 -0.006 200.000 23.994 " stroke="none" fill="#44548c" fill-rule="evenodd"></path><path id="path4" d="M254.000 144.525 C 254.000 144.594,254.585 145.179,255.300 145.825 L 256.600 147.000 255.425 145.700 C 254.330 144.488,254.000 144.216,254.000 144.525 M258.501 153.800 C 258.505 154.680,258.587 154.993,258.683 154.495 C 258.779 153.998,258.775 153.278,258.675 152.895 C 258.575 152.513,258.496 152.920,258.501 153.800 M121.400 283.597 C 110.961 286.312,102.004 293.492,97.944 302.400 C 97.492 303.390,96.884 304.695,96.592 305.300 C 96.300 305.905,96.232 306.400,96.441 306.400 C 96.649 306.400,97.007 305.905,97.237 305.300 C 105.204 284.274,132.097 276.426,150.200 289.845 C 153.939 292.617,159.200 298.275,159.200 299.524 C 159.200 299.749,159.336 299.993,159.502 300.067 C 159.809 300.202,162.130 304.802,162.559 306.125 C 162.702 306.566,162.984 306.733,163.277 306.552 C 163.652 306.320,163.653 306.218,163.280 306.093 C 163.016 306.005,162.794 305.723,162.787 305.467 C 162.769 304.785,159.797 298.962,159.181 298.400 C 159.060 298.290,158.526 297.570,157.994 296.800 C 150.593 286.087,134.353 280.228,121.400 283.597 M162.566 329.843 C 153.043 358.402,111.697 360.639,98.485 333.310 C 97.498 331.269,96.551 329.600,96.380 329.600 C 96.209 329.600,96.593 330.683,97.234 332.006 C 97.875 333.330,98.400 334.515,98.400 334.641 C 98.400 335.916,105.354 344.060,108.000 345.883 C 108.550 346.262,109.336 346.881,109.746 347.259 C 111.154 348.554,117.267 351.240,121.038 352.220 C 134.570 355.736,150.421 350.151,157.993 339.200 C 158.526 338.430,159.060 337.710,159.181 337.600 C 159.394 337.405,159.739 336.821,161.164 334.245 C 162.184 332.399,163.263 329.530,163.026 329.293 C 162.912 329.179,162.705 329.426,162.566 329.843 " stroke="none" fill="#a4b1c9" fill-rule="evenodd"></path></g></svg>