<svg height="512" viewBox="0 0 512 512" width="512" xmlns="http://www.w3.org/2000/svg"><g id="filled_outline" data-name="filled outline"><rect fill="#d9d9d9" height="456.001" rx="32" width="288.001" x="23.996" y="31.995"/><circle cx="167.997" cy="343.996" fill="#f8f8f8" r="112"/><circle cx="167.997" cy="343.996" fill="#d9d9d9" r="48"/><path d="m151.997 327.996v32l32-16z" fill="#f85542"/><path d="m23.996 79.995h288.001v120h-288.001z" fill="#41dfd0"/><path d="m128 176a8 8 0 0 1 -3.586-15.156l11.586-5.794v-27.05a8 8 0 0 1 5.468-7.59l48-16a8 8 0 0 1 10.532 7.59v40a8 8 0 0 1 -4.422 7.156l-16 8a8 8 0 1 1 -7.156-14.312l11.578-5.794v-23.957l-32 10.668v26.239a8 8 0 0 1 -4.422 7.156l-16 8a7.963 7.963 0 0 1 -3.578.844z" fill="#27b5b1"/><path d="m159.997 255.995h16v16h-16z" fill="#d9d9d9"/><path d="m79.996 335.996h16v16h-16z" fill="#d9d9d9"/><path d="m239.997 335.996h16v16h-16z" fill="#d9d9d9"/><path d="m159.997 415.996h16v16h-16z" fill="#d9d9d9"/><g fill="#2bc9c4"><path d="m47.996 159.995h16v16h-16z"/><path d="m79.996 159.995h16v16h-16z"/><path d="m47.996 103.995h72v16h-72z"/><path d="m215.997 159.995h72v16h-72z"/><path d="m271.997 103.995h16v16h-16z"/><path d="m239.997 103.995h16v16h-16z"/></g><path d="m440 360h-40a16.019 16.019 0 0 1 -16-16v-16h40a32.034 32.034 0 0 0 32-32v-24h-16v24a16.019 16.019 0 0 1 -16 16h-40v-168h-16v200a32.035 32.035 0 0 0 32 32h40a32 32 0 0 1 0 64h-72v16h72a48 48 0 0 0 0-96z" fill="#27b5b1"/><path d="m360 464h-48v-32h48a16 16 0 0 1 16 16 16 16 0 0 1 -16 16z" fill="#ebebeb"/><path d="m376 152a16 16 0 0 1 -16-16v-48h32v48a16 16 0 0 1 -16 16z" fill="#eaeae8"/><path d="m448 280a16 16 0 0 1 -16-16v-48h32v48a16 16 0 0 1 -16 16z" fill="#eaeae8"/><path d="m360 106.579a34.353 34.353 0 0 0 18.419 5.421h13.581v-24h-32z" fill="#dddddb"/><path d="m432 234.579a34.356 34.356 0 0 0 18.419 5.421h13.581v-24h-32z" fill="#dddddb"/><path d="m472 224h-21.581a34.423 34.423 0 0 1 -28.641-15.328 34.426 34.426 0 0 1 -5.778-19.099v-3.156a34.43 34.43 0 0 1 5.781-19.094 34.423 34.423 0 0 1 28.638-15.323h21.581a16 16 0 0 1 16 16v40a16 16 0 0 1 -16 16z" fill="#eaeae8"/><path d="m456 152h16a16 16 0 0 1 16 16v40a16 16 0 0 1 -16 16h-16a0 0 0 0 1 0 0v-72a0 0 0 0 1 0 0z" fill="#d9d9d9"/><path d="m400 96h-21.581a34.423 34.423 0 0 1 -28.641-15.328 34.428 34.428 0 0 1 -5.778-19.099v-3.156a34.428 34.428 0 0 1 5.781-19.094 34.423 34.423 0 0 1 28.638-15.323h21.581a16 16 0 0 1 16 16v40a16 16 0 0 1 -16 16z" fill="#eaeae8"/><path d="m384 23.995h16a16 16 0 0 1 16 16v40.005a16 16 0 0 1 -16 16h-16a0 0 0 0 1 0 0v-72a0 0 0 0 1 0-.005z" fill="#d9d9d9"/><path d="m187.575 336.843-32-16a8 8 0 0 0 -11.575 7.157v32a8 8 0 0 0 11.578 7.156l32-16a8 8 0 0 0 0-14.313zm-27.575 10.211v-6.109l6.106 3.055z"/><path d="m196.676 105.511a8 8 0 0 0 -7.211-1.1l-48 16a8 8 0 0 0 -5.465 7.589v27.055l-11.579 5.789a8 8 0 0 0 7.157 14.312l16-8a8 8 0 0 0 4.422-7.156v-26.235l32-10.665v23.957l-11.578 5.789a8 8 0 1 0 7.156 14.312l16-8a8 8 0 0 0 4.422-7.158v-40a8 8 0 0 0 -3.324-6.489z"/><path d="m168 288a56 56 0 1 0 56 56 56.066 56.066 0 0 0 -56-56zm0 96a40 40 0 1 1 40-40 40.048 40.048 0 0 1 -40 40z"/><path d="m168 224a120 120 0 1 0 120 120 120.134 120.134 0 0 0 -120-120zm0 224a104 104 0 1 1 104-104 104.119 104.119 0 0 1 -104 104z"/><path d="m159.997 255.999h16v16h-16z"/><path d="m79.996 335.999h16v16h-16z"/><path d="m239.997 335.999h16v16h-16z"/><path d="m159.997 416h16v16h-16z"/><path d="m47.996 159.999h16v16h-16z"/><path d="m79.996 159.999h16v16h-16z"/><path d="m47.996 103.999h72v16h-72z"/><path d="m215.997 159.999h72v16h-72z"/><path d="m271.997 103.999h16v16h-16z"/><path d="m239.997 103.999h16v16h-16z"/><path d="m472 144h-21.581a42.417 42.417 0 0 0 -42.419 42.421v3.156a41.928 41.928 0 0 0 16 33.1v41.323a23.96 23.96 0 0 0 16 22.526v9.474a16.018 16.018 0 0 1 -16 16h-40v-153.475a23.96 23.96 0 0 0 16-22.525v-32a24.027 24.027 0 0 0 24-24v-40a24.027 24.027 0 0 0 -24-24h-21.581a42.417 42.417 0 0 0 -42.419 42.421v3.156a41.934 41.934 0 0 0 16 33.1v41.323a23.96 23.96 0 0 0 16 22.526v185.474a32.035 32.035 0 0 0 32 32h40a32 32 0 1 1 0 64h-57.477a23.96 23.96 0 0 0 -22.523-16h-40v-360a40.047 40.047 0 0 0 -40-40h-224a40.047 40.047 0 0 0 -40 40v392a40.048 40.048 0 0 0 40 40h224a40.027 40.027 0 0 0 36.609-24h43.391a23.96 23.96 0 0 0 22.526-16h57.474a48 48 0 1 0 0-96h-40a16.019 16.019 0 0 1 -16-16v-16h40a32.033 32.033 0 0 0 32-32v-9.474a23.96 23.96 0 0 0 16-22.526v-32a24.025 24.025 0 0 0 24-24v-40a24.026 24.026 0 0 0 -24-24zm-72-112a8.008 8.008 0 0 1 8 8v40a8.008 8.008 0 0 1 -8 8h-8v-56zm-48 26.421a26.114 26.114 0 0 1 24-26.121v55.4a26.12 26.12 0 0 1 -24-26.122zm26.419 45.579h5.581v32a8 8 0 0 1 -16 0v-33.295a42.532 42.532 0 0 0 10.419 1.295zm-346.419-16h272v104h-272zm24-48h224a24.027 24.027 0 0 1 24 24v8h-272v-8a24.027 24.027 0 0 1 24-24zm224 440h-224a24.027 24.027 0 0 1 -24-24v-248h272v248a24.027 24.027 0 0 1 -24 24zm80-24h-40v-16h40a8 8 0 1 1 0 16zm64-269.579a26.116 26.116 0 0 1 24-26.121v55.4a26.121 26.121 0 0 1 -24-26.122zm32 77.579a8 8 0 0 1 -16 0v-33.295a42.532 42.532 0 0 0 10.419 1.295h5.581zm24-56a8.008 8.008 0 0 1 -8 8h-8v-56h8a8.008 8.008 0 0 1 8 8z"/></g></svg>