<?xml version="1.0" ?><svg height="58px" version="1.1" viewBox="0 0 58 58" width="58px" xmlns="http://www.w3.org/2000/svg" xmlns:xlink="http://www.w3.org/1999/xlink"><title/><desc/><defs/><g fill="none" fill-rule="evenodd" id="Page-1" stroke="none" stroke-width="1"><g fill-rule="nonzero" id="015---Mute"><ellipse cx="29" cy="29" fill="#35495E" id="Oval" rx="29" ry="28.875"/><path d="M29,54.875 C14.7258624,54.8062083 3.20367241,43.1910968 3.24953355,28.9168671 C3.29539468,14.6426374 14.8919815,3.1018034 29.1662665,3.12473387 C43.4405514,3.14766433 54.9999997,14.7256966 55,29 C54.9492389,43.3181062 43.3181845,54.893242 29,54.875 Z M29,5.125 C15.8304243,5.19376862 5.20363798,15.9134441 5.24948467,29.0831195 C5.29533136,42.2527949 15.9964946,52.898223 29.1662298,52.8752983 C42.3359651,52.8523737 53.0000025,42.1697552 53,29 C52.950323,15.7860145 42.2140648,5.10567421 29,5.125 Z" fill="#FF5364" id="Shape"/><path d="M16,25 L20,25 L20,33 L16,33 C14.8954305,33 14,32.1045695 14,31 L14,27 C14,25.8954305 14.8954305,25 16,25 Z" fill="#DF4D60" id="Shape"/><path d="M29.78058,17.47644 L20,25 L20,33 L29.78058,40.5235 C30.3845142,40.9880638 31.1999488,41.0691137 31.8835137,40.7325205 C32.5670787,40.3959272 33.0000079,39.7001723 33,38.93823 L33,19.06171 C33.0000079,18.2997677 32.5670787,17.6040128 31.8835137,17.2674195 C31.1999488,16.9308263 30.3845142,17.0118762 29.78058,17.47644 Z" fill="#FF5364" id="Shape"/><path d="M43,34 C42.7347342,34.0003006 42.4802902,33.8948521 42.293,33.707 L36.293,27.707 C35.908547,27.3155191 35.9113917,26.6873575 36.2993746,26.2993746 C36.6873575,25.9113917 37.3155191,25.908547 37.707,26.293 L43.707,32.293 C43.9929079,32.5789943 44.0784219,33.0090366 43.923678,33.3826546 C43.7689341,33.7562725 43.4043959,33.9999137 43,34 Z" fill="#DF4D60" id="Shape"/><path d="M37,34 C36.5956041,33.9999137 36.2310659,33.7562725 36.076322,33.3826546 C35.9215781,33.0090366 36.0070921,32.5789943 36.293,32.293 L42.293,26.293 C42.5448109,26.0365859 42.9148595,25.9350329 43.2622771,26.0269999 C43.6096948,26.1189669 43.8810331,26.3903052 43.9730001,26.7377229 C44.0649671,27.0851405 43.9634141,27.4551891 43.707,27.707 L37.707,33.707 C37.5197098,33.8948521 37.2652658,34.0003006 37,34 Z" fill="#DF4D60" id="Shape"/></g></g></svg>