<?xml version="1.0" encoding="utf-8"?>
<svg width="558px" height="503px" viewBox="0 0 558 503" version="1.1" xmlns:xlink="http://www.w3.org/1999/xlink" xmlns="http://www.w3.org/2000/svg">
  <desc>Created with Lunacy</desc>
  <g id="mute1">
    <path d="M0 0L502 0L502 503L0 503L0 0Z" id="Background" fill="none" stroke="none" />
    <g id="play" transform="translate(56 0)">
      <g id="Group">
        <g id="Group">
          <path d="M0 241C0 107.899 107.899 0 241 0C374.101 0 482 107.899 482 241C482 374.101 374.101 482 241 482C107.899 482 0 374.101 0 241L0 241Z" transform="translate(10 10)" id="Circle-2" fill="#545860" stroke="none" />
          <path d="M0 209.3C0 76.1994 101.799 0 234.9 0C255.246 0 271.889 8.72771 287.4 14C323.839 26.3854 350.23 45.3524 376.4 71.5C411.967 107.036 447.9 144.542 447.9 209.5C447.9 342.6 374.101 450.3 241 450.3C107.899 450.3 0 342.4 0 209.3L0 209.3Z" transform="translate(42 7.699951)" id="Circle" fill="#CCD7EB" stroke="none" />
          <path d="M251 502C183.956 502 120.924 475.892 73.516 428.484C26.108 381.076 0 318.044 0 251C0 183.956 26.108 120.924 73.516 73.516C120.924 26.108 183.956 0 251 0C318.044 0 381.076 26.108 428.484 73.516C475.892 120.924 502 183.956 502 251C502 318.044 475.892 381.076 428.484 428.484C381.076 475.892 318.044 502 251 502ZM251 20C123.626 20 20 123.626 20 251C20 378.374 123.626 482 251 482C378.374 482 482 378.374 482 251C482 123.626 378.374 20 251 20Z" id="Shape" fill="#000000" fill-rule="evenodd" stroke="none" />
        </g>
      </g>
      <g id="Group-4" transform="translate(132.4 120.2)">
        <path d="M261.631 16.8027C257.916 12.7501 251.499 12.4121 247.446 16.1272L200.838 59.0203L200.838 10.048C200.838 6.33285 198.812 2.9558 195.772 1.26664C192.733 -0.422536 188.68 -0.421889 185.64 1.26664L74.1875 66.45L12.7193 66.45C6.97755 66.45 2.58752 70.8407 2.58752 76.5818L2.58752 185.333C2.58752 191.075 6.9782 195.465 12.7193 195.465L53.5852 195.465L3.26306 242.073C-0.789533 245.788 -1.12762 252.205 2.58752 256.258C4.61413 258.285 7.31564 259.635 10.0178 259.635C12.3819 259.635 15.084 258.622 16.7725 256.933L78.5782 199.856L185.64 260.649C187.329 261.662 189.017 262 190.707 262C192.396 262 194.084 261.663 195.773 260.649C198.812 258.96 200.839 255.583 200.839 251.868L200.839 86.7142L260.956 30.9877C265.346 27.2726 265.346 20.856 261.631 16.8027L261.631 16.8027L261.631 16.8027Z" id="Shape" fill="#000000" stroke="none" />
        <g id="Group" transform="translate(96.89136 19.58179)">
          <path d="M88.6394 1.70126L88.6394 10.2097L88.6394 142.37L0 88.2013L88.6394 0L88.6394 1.70126L88.6394 1.70126Z" transform="translate(0 78.48853)" id="Polygon" fill="#64FFDB" stroke="none" />
          <path d="M86.6241 56.3904L1.0192 138.34L0.764648 138.077L0 136.759L0.764648 134.914L0.764648 53.2281L0.764648 51.9107L1.0192 51.9107L1.27376 51.6469L86.6241 0L86.6241 56.3904L86.6241 56.3904Z" transform="translate(0.07592785 0)" id="Polygon" fill="#64FFDB" stroke="none" />
        </g>
      </g>
    </g>
  </g>
</svg>