<?xml version="1.0" encoding="utf-8"?>
<svg width="502px" height="503px" viewBox="0 0 502 503" version="1.1" xmlns:xlink="http://www.w3.org/1999/xlink" xmlns="http://www.w3.org/2000/svg">
  <desc>Created with Lunacy</desc>
  <g id="play">
    <g id="Group">
      <g id="Group">
        <path d="M0 241C0 107.899 107.899 0 241 0C374.101 0 482 107.899 482 241C482 374.101 374.101 482 241 482C107.899 482 0 374.101 0 241Z" transform="translate(10 10)" id="Circle-2" fill="#545860" stroke="none" />
        <path d="M0 209.3C0 76.1994 101.799 0 234.9 0C255.246 0 271.889 8.72771 287.4 14C323.839 26.3854 350.23 45.3524 376.4 71.5C411.967 107.036 447.9 144.542 447.9 209.5C447.9 342.6 374.101 450.3 241 450.3C107.899 450.3 0 342.4 0 209.3Z" transform="translate(42 7.699982)" id="Circle" fill="#CCD7EB" stroke="none" />
        <path d="M73.516 428.484C120.924 475.892 183.956 502 251 502C318.044 502 381.076 475.892 428.484 428.484C475.892 381.076 502 318.044 502 251C502 183.956 475.892 120.924 428.484 73.516C381.076 26.108 318.044 0 251 0C183.956 0 120.924 26.108 73.516 73.516C26.108 120.924 0 183.956 0 251C0 318.044 26.108 381.076 73.516 428.484ZM20 251C20 123.626 123.626 20 251 20C378.374 20 482 123.626 482 251C482 378.374 378.374 482 251 482C123.626 482 20 378.374 20 251Z" id="Shape" fill="#000000" fill-rule="evenodd" stroke="none" />
      </g>
      <g id="Group" transform="translate(309.9994 58.55789)">
        <path d="M122.28 130.442C118.303 130.442 114.543 128.054 112.985 124.134C93.8127 75.9081 54.9866 37.7171 6.46365 19.3551C1.29767 17.4001 -1.30536 11.6281 0.650665 6.46312C2.60565 1.29812 8.37668 -1.30488 13.5427 0.65012C67.3087 20.9961 110.328 63.3111 131.57 116.745C133.611 121.877 131.104 127.692 125.972 129.732C124.759 130.213 123.509 130.442 122.28 130.442L122.28 130.442Z" id="Shape" fill="#000000" stroke="none" />
      </g>
      <g id="Group" transform="translate(241 46)">
        <path d="M43.011 22.782C42.453 22.782 41.887 22.735 41.319 22.638C31.049 20.888 20.512 20 10 20C4.47701 20 0 15.523 0 10C0 4.477 4.47701 0 10 0C21.635 0 33.303 0.983002 44.68 2.923C50.124 3.851 53.785 9.017 52.857 14.462C52.026 19.337 47.796 22.782 43.011 22.782L43.011 22.782Z" id="Shape" fill="#000000" stroke="none" />
      </g>
    </g>
    <g id="backward" transform="translate(99.01559 121.2)">
      <g id="Group" transform="translate(0 2.186615)">
        <g id="Group">
          <g id="Group">
            <g id="Group">
              <path d="M129.302 258.62C121.748 258.62 114.647 255.679 109.306 250.338L8.26963 149.301C-2.75654 138.274 -2.75654 120.334 8.26963 109.307L109.306 8.26993C120.333 -2.75707 138.273 -2.75623 149.299 8.26993C160.326 19.2961 160.326 37.2364 149.299 48.2626L68.2586 129.304L149.299 210.344C160.325 221.37 160.325 239.312 149.299 250.338C143.958 255.679 136.856 258.62 129.302 258.62L129.302 258.62Z" id="Shape-path" fill="#000000" stroke="none" />
              <path d="M120.952 241.903C115.855 241.903 110.759 239.96 106.87 236.071L5.83303 135.034C-1.94434 127.256 -1.94434 114.648 5.83303 106.87L106.87 5.83302C114.648 -1.94434 127.256 -1.94434 135.034 5.83302C142.811 13.6104 142.811 26.2191 135.034 33.9965L48.0782 120.952L135.033 207.907C142.81 215.685 142.81 228.294 135.033 236.071C131.145 239.96 126.048 241.903 120.952 241.903L120.952 241.903Z" transform="translate(8.351184 8.352307)" id="Shape" fill="#025D54" stroke="none" />
              <path d="M98.6257 0C96.0339 0 93.4436 0.986301 91.4709 2.9589L2.95891 91.4702C-0.986295 95.4154 -0.986295 101.834 2.95891 105.78L91.471 194.292C93.382 196.203 95.9225 197.255 98.6257 197.255C101.329 197.255 103.869 196.203 105.78 194.292C109.726 190.346 109.726 183.927 105.78 179.982L29.6051 103.806C26.7437 100.945 26.7437 96.305 29.6051 93.4428L105.78 17.2669C109.726 13.3224 109.726 6.90264 105.78 2.95744C103.808 0.986301 101.217 0 98.6257 0L98.6257 0Z" transform="translate(18.89766 31.27163)" id="Shape-path" fill="#000000" stroke="none" />
            </g>
          </g>
        </g>
      </g>
      <g id="Group" transform="translate(171.969 0)">
        <path d="M34.2077 260.974C15.3456 260.974 0 245.629 0 226.767L0 34.2077C0 15.3456 15.3456 0 34.2077 0C53.0698 0 68.4154 15.3456 68.4154 34.2077L68.4154 226.767C68.4162 245.629 53.0706 260.974 34.2077 260.974L34.2077 260.974Z" id="Shape-path" fill="#000000" stroke="none" />
        <path d="M25.8431 244.245L25.8431 244.245C11.5699 244.245 0 232.674 0 218.402L0 25.8431C0 11.5699 11.5707 0 25.8431 0L25.8431 0C40.1164 0 51.6863 11.5707 51.6863 25.8431L51.6863 218.402C51.6863 232.674 40.1156 244.245 25.8431 244.245L25.8431 244.245Z" transform="translate(8.365429 8.36456)" id="Shape" fill="#64FFDB" stroke="none" />
        <path d="M12.5468 0C5.62854 0 0 5.62855 0 12.5468L0 150.773C0 157.692 5.62854 163.32 12.5468 163.32C19.4651 163.32 25.0937 157.692 25.0937 150.773L25.0937 12.5468C25.0943 5.62855 19.4657 0 12.5468 0L12.5468 0Z" transform="translate(21.74786 50.18736)" id="Shape-path" fill="#000000" stroke="none" />
      </g>
    </g>
  </g>
</svg>