<?xml version="1.0" encoding="utf-8"?>
<svg width="502px" height="503px" viewBox="0 0 502 503" version="1.1" xmlns:xlink="http://www.w3.org/1999/xlink" xmlns="http://www.w3.org/2000/svg">
  <desc>Created with Lunacy</desc>
  <g id="nxtIc">
    <path d="M0 0L502 0L502 503L0 503L0 0Z" id="Background" fill="none" stroke="none" />
    <g id="play">
      <g id="Group">
        <g id="Group">
          <path d="M0 241C0 107.899 107.899 0 241 0C374.101 0 482 107.899 482 241C482 374.101 374.101 482 241 482C107.899 482 0 374.101 0 241L0 241Z" transform="translate(10 10)" id="Circle-2" fill="#545860" stroke="none" />
          <path d="M0 209.3C0 76.1994 101.799 0 234.9 0C255.246 0 271.889 8.72771 287.4 14C323.839 26.3854 350.23 45.3524 376.4 71.5C411.967 107.036 447.9 144.542 447.9 209.5C447.9 342.6 374.101 450.3 241 450.3C107.899 450.3 0 342.4 0 209.3L0 209.3Z" transform="translate(42 7.699982)" id="Circle" fill="#CCD7EB" stroke="none" />
          <path d="M251 502C183.956 502 120.924 475.892 73.516 428.484C26.108 381.076 0 318.044 0 251C0 183.956 26.108 120.924 73.516 73.516C120.924 26.108 183.956 0 251 0C318.044 0 381.076 26.108 428.484 73.516C475.892 120.924 502 183.956 502 251C502 318.044 475.892 381.076 428.484 428.484C381.076 475.892 318.044 502 251 502ZM251 20C123.626 20 20 123.626 20 251C20 378.374 123.626 482 251 482C378.374 482 482 378.374 482 251C482 123.626 378.374 20 251 20Z" id="Shape" fill="#000000" fill-rule="evenodd" stroke="none" />
        </g>
      </g>
      <g id="backward" transform="translate(134.3992 122.1975)">
        <g id="Group">
          <g id="Group">
            <g id="Group" transform="matrix(-1 1.509958E-07 -1.509958E-07 -1 264.3777 259.1885)">
              <g id="Group">
                <path d="M129.586 259.187C122.015 259.187 114.898 256.239 109.545 250.886L8.28775 149.628C-2.76258 138.577 -2.76258 120.598 8.28775 109.547L109.545 8.28805C120.597 -2.7631 138.576 -2.76226 149.627 8.28805C160.677 19.3384 160.677 37.318 149.627 48.3683L68.4081 129.588L149.626 210.805C160.676 221.856 160.676 239.836 149.626 250.886C144.273 256.239 137.156 259.187 129.586 259.187L129.586 259.187L129.586 259.187Z" id="Shape-path" fill="#000000" stroke="none" />
                <path d="M121.217 242.434C116.109 242.434 111.002 240.485 107.104 236.588L5.84582 135.33C-1.94861 127.535 -1.94861 114.899 5.84582 107.104L107.104 5.8458C114.899 -1.9486 127.535 -1.9486 135.33 5.8458C143.124 13.6402 143.124 26.2766 135.33 34.071L48.1836 121.217L135.329 208.363C143.123 216.157 143.123 228.794 135.329 236.588C131.432 240.485 126.325 242.434 121.217 242.434L121.217 242.434L121.217 242.434Z" transform="translate(8.369507 8.370605)" id="Shape" fill="#64FFDB" stroke="none" />
              </g>
              <g id="Group-2" transform="translate(106.4632 0.001464844)">
                <path d="M129.586 259.187C122.015 259.187 114.898 256.239 109.546 250.886L8.28775 149.628C-2.76258 138.577 -2.76258 120.598 8.28775 109.547L109.546 8.28805C120.597 -2.7631 138.576 -2.76226 149.627 8.28805C160.677 19.3384 160.677 37.318 149.627 48.3683L68.4081 129.588L149.626 210.805C160.676 221.856 160.676 239.836 149.626 250.886C144.273 256.239 137.156 259.187 129.586 259.187L129.586 259.187L129.586 259.187Z" id="Shape-path" fill="#000000" stroke="none" />
                <path d="M89.7922 0C87.4326 0 85.0742 0.897962 83.2783 2.69389L2.69389 83.2776C-0.897962 86.8695 -0.897962 92.7136 2.69389 96.3054L83.2783 176.89C85.0182 178.63 87.3312 179.588 89.7922 179.588C92.2533 179.588 94.5662 178.63 96.3061 176.89C99.898 173.298 99.898 167.454 96.3061 163.862L26.9535 94.5088C24.3484 91.9037 24.3484 87.6794 26.9535 85.0736L96.3061 15.7203C99.8979 12.1292 99.8979 6.2844 96.3061 2.69255C94.5102 0.897962 92.1512 0 89.7922 0L89.7922 0L89.7922 0Z" transform="translate(19.91391 41.18466)" id="Shape-path" fill="#000000" stroke="none" />
              </g>
            </g>
          </g>
        </g>
      </g>
    </g>
  </g>
</svg>