<?xml version="1.0" encoding="utf-8"?>
<svg width="502px" height="503px" viewBox="0 0 502 503" version="1.1" xmlns:xlink="http://www.w3.org/1999/xlink" xmlns="http://www.w3.org/2000/svg">
  <desc>Created with Lunacy</desc>
  <g id="pausse">
    <path d="M0 0L502 0L502 503L0 503L0 0Z" id="Background" fill="none" stroke="none" />
    <g id="play">
      <g id="Group">
        <g id="Group">
          <path d="M0 241C0 107.899 107.899 0 241 0C374.101 0 482 107.899 482 241C482 374.101 374.101 482 241 482C107.899 482 0 374.101 0 241L0 241Z" transform="translate(10 10)" id="Circle-2" fill="#545860" stroke="none" />
          <path d="M0 209.3C0 76.1994 101.799 0 234.9 0C255.246 0 271.889 8.72771 287.4 14C323.839 26.3854 350.23 45.3524 376.4 71.5C411.967 107.036 447.9 144.542 447.9 209.5C447.9 342.6 374.101 450.3 241 450.3C107.899 450.3 0 342.4 0 209.3L0 209.3Z" transform="translate(42 7.699982)" id="Circle" fill="#CCD7EB" stroke="none" />
          <path d="M251 502C183.956 502 120.924 475.892 73.516 428.484C26.108 381.076 0 318.044 0 251C0 183.956 26.108 120.924 73.516 73.516C120.924 26.108 183.956 0 251 0C318.044 0 381.076 26.108 428.484 73.516C475.892 120.924 502 183.956 502 251C502 318.044 475.892 381.076 428.484 428.484C381.076 475.892 318.044 502 251 502ZM251 20C123.626 20 20 123.626 20 251C20 378.374 123.626 482 251 482C378.374 482 482 378.374 482 251C482 123.626 378.374 20 251 20Z" id="Shape" fill="#000000" fill-rule="evenodd" stroke="none" />
        </g>
      </g>
      <g id="Group-3" transform="translate(164.4 120.2)">
        <g id="Group">
          <path d="M28.0145 245.205L28.0145 245.205C12.542 245.205 0 233.589 0 219.26L0 25.9447C0 11.6153 12.5429 0 28.0145 0L28.0145 0C43.487 0 56.029 11.6162 56.029 25.9447L56.029 219.26C56.029 233.589 43.4861 245.205 28.0145 245.205L28.0145 245.205L28.0145 245.205Z" transform="translate(9.067352 8.39743)" id="Shape" fill="#4D93E8" stroke="none" />
          <path d="M37.0819 262C16.635 262 0 246.594 0 227.658L0 34.3422C0 15.4059 16.635 0 37.0819 0C57.5288 0 74.1637 15.4059 74.1637 34.3422L74.1637 227.658C74.1637 246.594 57.5288 262 37.0819 262ZM37.0819 16.7949C26.6345 16.7949 18.1347 24.6666 18.1347 34.3422L18.1347 227.658C18.1347 237.333 26.6345 245.205 37.0819 245.205C47.5293 245.205 56.029 237.333 56.029 227.658L56.029 34.3422C56.029 24.6666 47.5284 16.7949 37.0819 16.7949Z" id="Shape" fill="#000000" fill-rule="evenodd" stroke="none" />
        </g>
        <g id="Group" transform="translate(100.8363 0)">
          <path d="M37.0819 262C16.635 262 0 246.594 0 227.658L0 34.3422C0 15.4059 16.635 0 37.0819 0C57.5287 0 74.1637 15.4059 74.1637 34.3422L74.1637 227.658C74.1646 246.594 57.5297 262 37.0819 262L37.0819 262L37.0819 262Z" id="Shape-path" fill="#000000" stroke="none" />
          <path d="M17.7629 0C7.9685 0 0 7.37977 0 16.4506L0 197.684C0 206.755 7.9685 214.135 17.7629 214.135C27.5574 214.135 35.5259 206.755 35.5259 197.684L35.5259 16.4506C35.5268 7.37977 27.5583 0 17.7629 0L17.7629 0L17.7629 0Z" transform="translate(19.41321 26.24428)" id="Shape-path" fill="#000000" stroke="none" />
        </g>
      </g>
    </g>
  </g>
</svg>