<?xml version="1.0" encoding="utf-8"?>
<svg width="502px" height="503px" viewBox="0 0 502 503" version="1.1" xmlns:xlink="http://www.w3.org/1999/xlink" xmlns="http://www.w3.org/2000/svg">
  <desc>Created with Lunacy</desc>
  <g id="playbt">
    <path d="M0 0L502 0L502 503L0 503L0 0Z" id="Background" fill="none" stroke="none" />
    <g id="play">
      <g id="Group">
        <g id="Group">
          <path d="M0 241C0 107.899 107.899 0 241 0C374.101 0 482 107.899 482 241C482 374.101 374.101 482 241 482C107.899 482 0 374.101 0 241L0 241Z" transform="translate(10 10)" id="Circle-2" fill="#545860" stroke="none" />
          <path d="M0 209.3C0 76.1994 101.799 0 234.9 0C255.246 0 271.889 8.72771 287.4 14C323.839 26.3854 350.23 45.3524 376.4 71.5C411.967 107.036 447.9 144.542 447.9 209.5C447.9 342.6 374.101 450.3 241 450.3C107.899 450.3 0 342.4 0 209.3L0 209.3Z" transform="translate(42 7.699982)" id="Circle" fill="#CCD7EB" stroke="none" />
          <path d="M251 502C183.956 502 120.924 475.892 73.516 428.484C26.108 381.076 0 318.044 0 251C0 183.956 26.108 120.924 73.516 73.516C120.924 26.108 183.956 0 251 0C318.044 0 381.076 26.108 428.484 73.516C475.892 120.924 502 183.956 502 251C502 318.044 475.892 381.076 428.484 428.484C381.076 475.892 318.044 502 251 502ZM251 20C123.626 20 20 123.626 20 251C20 378.374 123.626 482 251 482C378.374 482 482 378.374 482 251C482 123.626 378.374 20 251 20Z" id="Shape" fill="#000000" fill-rule="evenodd" stroke="none" />
        </g>
      </g>
      <g id="Group-2" transform="translate(164.4 122.2)">
        <path d="M32.486 259.366C27.271 259.366 22.041 258.106 17.249 255.562C6.60899 249.913 0 238.921 0 226.875L0 32.491C0 20.445 6.60899 9.45198 17.249 3.80298C27.888 -1.84402 40.696 -1.16302 50.675 5.58498L194.396 102.777C203.341 108.826 208.681 118.884 208.681 129.682C208.681 140.48 203.341 150.538 194.396 156.587L50.675 253.779C45.19 257.489 38.85 259.366 32.486 259.366L32.486 259.366L32.486 259.366Z" id="Shape-path" fill="#000000" stroke="none" />
        <path d="M33.4595 3.71691L170.568 96.4374C183.144 104.942 183.144 123.462 170.568 131.967L33.4595 224.688C19.2173 234.319 0 224.115 0 206.922L0 21.4822C0 4.2893 19.2173 -5.91367 33.4595 3.71691L33.4595 3.71691L33.4595 3.71691Z" transform="translate(13.3197 15)" id="Shape" fill="#4D93E8" stroke="none" />
      </g>
    </g>
  </g>
</svg>