<?xml version="1.0"?>
<svg xmlns="http://www.w3.org/2000/svg" xmlns:xlink="http://www.w3.org/1999/xlink" version="1.1" id="Layer_1" x="0px" y="0px" viewBox="0 0 501.34 501.34" style="enable-background:new 0 0 501.34 501.34;" xml:space="preserve" width="512px" height="512px"><g><g>
	<path d="M378.518,129.673c0-8.284-6.716-15-15-15s-15,6.716-15,15v152.636c-12.73-9.68-28.609-15.438-45.808-15.438   c-41.8,0-75.81,34-75.81,75.8c0,41.81,34.01,75.82,75.81,75.82s75.81-34.01,75.81-75.82c0-0.052-0.002-0.103-0.002-0.155V129.673z    M302.71,388.49c-25.26,0-45.81-20.56-45.81-45.82c0-25.25,20.55-45.8,45.81-45.8c25.229,0,45.758,20.5,45.808,45.708v0.096   c0,0.01,0.001,0.019,0.001,0.029C348.501,367.948,327.959,388.49,302.71,388.49z" data-original="#000000" class="active-path" data-old_color="#000000" fill="#00685F"/>
	<path d="M137.822,150.072h161.181c8.284,0,15-6.716,15-15s-6.716-15-15-15H137.822c-8.284,0-15,6.716-15,15   S129.538,150.072,137.822,150.072z" data-original="#000000" class="active-path" data-old_color="#000000" fill="#00685F"/>
	<path d="M137.822,212.986h161.181c8.284,0,15-6.716,15-15s-6.716-15-15-15H137.822c-8.284,0-15,6.716-15,15   S129.538,212.986,137.822,212.986z" data-original="#000000" class="active-path" data-old_color="#000000" fill="#00685F"/>
	<path d="M216.153,245.899h-78.331c-8.284,0-15,6.716-15,15s6.716,15,15,15h78.331c8.284,0,15-6.716,15-15   S224.437,245.899,216.153,245.899z" data-original="#000000" class="active-path" data-old_color="#000000" fill="#00685F"/>
	<path d="M183.868,308.813h-46.046c-8.284,0-15,6.716-15,15s6.716,15,15,15h46.046c8.284,0,15-6.716,15-15   S192.152,308.813,183.868,308.813z" data-original="#000000" class="active-path" data-old_color="#000000" fill="#00685F"/>
	<path d="M250.67,0C112.13,0,0,112.12,0,250.67c0,138.54,112.12,250.67,250.67,250.67c138.54,0,250.67-112.12,250.67-250.67   C501.34,112.13,389.22,0,250.67,0z M250.67,471.34C128.99,471.34,30,372.35,30,250.67S128.99,30,250.67,30   s220.67,98.99,220.67,220.67S372.35,471.34,250.67,471.34z" data-original="#000000" class="active-path" data-old_color="#000000" fill="#00685F"/>
</g></g> </svg>
