<?xml version="1.0" encoding="utf-8"?>
<svg width="166px" height="158px" viewBox="0 0 166 158" version="1.1" xmlns:xlink="http://www.w3.org/1999/xlink" xmlns="http://www.w3.org/2000/svg">
  <desc>Created with Lunacy</desc>
  <g id="repeatone">
    <g id="repeatact">
      <g id="Group">
        <path d="M0 79C0 35.3695 35.3695 0 79 0C122.63 0 158 35.3695 158 79C158 122.63 122.63 158 79 158C35.3695 158 0 122.63 0 79L0 79Z" id="Circle" fill="#1FD4A9" stroke="none" />
        <path d="M5.44828 43.5862C2.44083 43.5862 0 41.1454 0 38.1379C0 17.1076 17.1076 0 38.1379 0L76.2759 0C79.2833 0 81.7241 2.44083 81.7241 5.44827C81.7241 8.45572 79.2833 10.8965 76.2759 10.8965L38.1379 10.8965C23.117 10.8965 10.8966 23.117 10.8966 38.1379C10.8966 41.1454 8.45573 43.5862 5.44828 43.5862L5.44828 43.5862L5.44828 43.5862Z" transform="translate(21.79309 43.58621)" id="Shape" fill="#FFFFFF" stroke="none" />
        <path d="M5.45326 54.4835C3.76974 54.4835 2.10802 53.7071 1.04288 52.2415C-0.727809 49.8061 -0.18843 46.3982 2.2415 44.6303L26.1513 27.2421L2.24422 9.85392C-0.18844 8.08595 -0.727819 4.67806 1.04559 2.24268C2.81084 -0.187251 6.21873 -0.729354 8.65684 1.04406L44.6754 27.2421L8.6514 53.4401C7.68432 54.1457 6.56198 54.4835 5.45326 54.4835L5.45326 54.4835L5.45326 54.4835Z" transform="translate(65.37982 21.79239)" id="Shape" fill="#FFFFFF" stroke="none" />
        <path d="M43.5862 43.5862L5.44828 43.5862C2.44083 43.5862 0 41.1454 0 38.1379C0 35.1305 2.44083 32.6897 5.44828 32.6897L43.5862 32.6897C58.6071 32.6897 70.8276 20.4692 70.8276 5.44828C70.8276 2.44083 73.2684 0 76.2759 0C79.2833 0 81.7241 2.44083 81.7241 5.44828C81.7241 26.4786 64.6166 43.5862 43.5862 43.5862L43.5862 43.5862L43.5862 43.5862Z" transform="translate(51.75861 70.82758)" id="Shape" fill="#FFFFFF" stroke="none" />
        <path d="M39.2221 54.4846C38.1134 54.4846 36.9911 54.1469 36.0213 53.4413L0 27.2433L36.024 1.04524C38.4621 -0.7309 41.8646 -0.186071 43.6352 2.24386C45.4059 4.67924 44.8666 8.08713 42.4366 9.8551L18.5241 27.2433L42.4312 44.6314C44.8638 46.3994 45.4032 49.8073 43.6298 52.2427C42.5701 53.7083 40.9057 54.4846 39.2221 54.4846L39.2221 54.4846L39.2221 54.4846Z" transform="translate(45.2207 81.72223)" id="Shape" fill="#FFFFFF" stroke="none" />
      </g>
      <g id="Group-2" transform="translate(94 1)">
        <path d="M0 36C0 16.1177 16.1177 0 36 0C55.8822 0 72 16.1177 72 36C72 55.8822 55.8822 72 36 72C16.1177 72 0 55.8822 0 36L0 36Z" id="Circle-2" fill="#023934" fill-opacity="0.8509804" stroke="none" />
        <path d="M19.9278 57.6C23.8275 57.6 27 55.1155 27 52.0615L27 5.53866C27 3.15712 25.0632 1.04727 22.1801 0.288604C21.4518 0.0970746 20.6944 0 19.9285 0C17.7271 0 15.6196 0.820296 14.2908 2.19444L1.43218 15.4867C-0.922495 17.9211 -0.309396 21.4018 2.79879 23.2458C4.03836 23.9811 5.5135 24.3698 7.06477 24.3698C9.30165 24.3698 11.3577 23.5699 12.7066 22.1756L12.8555 22.0217L12.8555 52.0615C12.8555 55.1155 16.028 57.6 19.9278 57.6ZM21.5435 1.82126C21.0049 1.67968 20.4528 1.61121 19.906 1.61121C18.3262 1.61121 16.7966 2.18257 15.8057 3.20709L2.94732 16.4994C1.23198 18.2727 1.67689 20.7991 3.94129 22.1424C4.87046 22.6936 5.96113 22.9601 7.04331 22.9599C8.59843 22.9599 10.1355 22.4096 11.147 21.364L14.7618 17.6268L14.7618 52.1622C14.7618 54.3869 17.0645 56.1902 19.9053 56.1902C22.746 56.1902 25.0487 54.3869 25.0487 52.1622L25.0487 5.63938C25.0487 3.90936 23.6379 2.37229 21.5435 1.82126ZM9.63203 20.3511C9.01893 20.9849 8.08333 21.3486 7.06545 21.3486C6.36182 21.3486 5.69215 21.172 5.12843 20.8377C3.71552 19.9995 3.43674 18.4173 4.5071 17.3108L17.3657 4.01849C17.9698 3.39396 18.928 3.02097 19.9287 3.02097C20.2761 3.02097 20.6205 3.06527 20.952 3.15228C22.2623 3.49707 23.1428 4.45613 23.1428 5.53865L23.1428 52.0615C23.1428 53.4498 21.7009 54.579 19.9282 54.579C18.1555 54.579 16.7135 53.4498 16.7135 52.0615L16.7135 17.5261C16.7135 16.8772 16.1843 16.301 15.3991 16.0944C15.1972 16.0412 14.9902 16.0156 14.785 16.0156C14.1927 16.0156 13.619 16.2299 13.2474 16.6142L9.63203 20.3511Z" transform="translate(18 7.199997)" id="Shape" fill="#FFFFFF" fill-rule="evenodd" stroke="none" />
      </g>
    </g>
  </g>
</svg>