<?xml version="1.0" encoding="utf-8"?>
<svg width="58px" height="58px" viewBox="0 0 58 58" version="1.1" xmlns:xlink="http://www.w3.org/1999/xlink" xmlns="http://www.w3.org/2000/svg">
  <desc>Created with Lunacy</desc>
  <g id="repeatact">
    <g id="Group">
      <path d="M0 29C0 12.9837 12.9837 0 29 0C45.0163 0 58 12.9837 58 29C58 45.0163 45.0163 58 29 58C12.9837 58 0 45.0163 0 29Z" id="Circle" fill="#1FD4A9" stroke="none" />
      <path d="M2 16C0.896 16 0 15.104 0 14C0 6.28 6.28 0 14 0L28 0C29.104 0 30 0.896 30 2C30 3.104 29.104 4 28 4L14 4C8.486 4 4 8.486 4 14C4 15.104 3.104 16 2 16L2 16Z" transform="translate(8 16)" id="Shape" fill="#FFFFFF" stroke="none" />
      <path d="M2.00183 20.0003C1.38383 20.0003 0.773829 19.7153 0.38283 19.1773C-0.26717 18.2833 -0.06917 17.0323 0.82283 16.3833L9.59983 10.0003L0.823826 3.61726C-0.0691738 2.96826 -0.267174 1.71726 0.383825 0.823262C1.03183 -0.068738 2.28283 -0.267738 3.17783 0.383263L16.3998 10.0003L3.17583 19.6173C2.82083 19.8763 2.40883 20.0003 2.00183 20.0003L2.00183 20.0003Z" transform="translate(24.00017 7.999739)" id="Shape" fill="#FFFFFF" stroke="none" />
      <path d="M16 16L2 16C0.896 16 0 15.104 0 14C0 12.896 0.896 12 2 12L16 12C21.514 12 26 7.514 26 2C26 0.896 26.896 0 28 0C29.104 0 30 0.896 30 2C30 9.72 23.72 16 16 16L16 16Z" transform="translate(19 26)" id="Shape" fill="#FFFFFF" stroke="none" />
      <path d="M14.398 20.0007C13.991 20.0007 13.579 19.8767 13.223 19.6177L0 10.0007L13.224 0.383696C14.119 -0.268305 15.368 -0.0683041 16.018 0.823696C16.668 1.7177 16.47 2.96869 15.578 3.6177L6.8 10.0007L15.576 16.3837C16.469 17.0327 16.667 18.2837 16.016 19.1777C15.627 19.7157 15.016 20.0007 14.398 20.0007L14.398 20.0007Z" transform="translate(16.6 29.9993)" id="Shape" fill="#FFFFFF" stroke="none" />
    </g>
  </g>
</svg>