<?xml version="1.0" encoding="utf-8"?>
<svg width="60px" height="60px" viewBox="0 0 60 60" version="1.1" xmlns:xlink="http://www.w3.org/1999/xlink" xmlns="http://www.w3.org/2000/svg">
  <desc>Created with Lunacy</desc>
  <g id="repeat">
    <path d="M0 30C0 13.458 13.458 0 30 0C46.542 0 60 13.458 60 30C60 46.542 46.542 60 30 60C13.458 60 0 46.542 0 30ZM12 31C12 31.553 11.553 32 11 32C10.447 32 10 31.553 10 31C10 23.832 15.832 18 23 18L34.925 18L26.412 11.809C25.965 11.485 25.866 10.859 26.191 10.413C26.514 9.966 27.139 9.867 27.587 10.192L39.7 19L27.588 27.809C27.41 27.938 27.205 28 27.001 28C26.691 28 26.387 27.857 26.191 27.588C25.866 27.142 25.964 26.516 26.412 26.192L34.925 20L23 20C16.935 20 12 24.935 12 31ZM24.075 42L36 42C43.168 42 49 36.168 49 29C49 28.447 48.553 28 48 28C47.447 28 47 28.447 47 29C47 35.065 42.065 40 36 40L24.075 40L32.587 33.808C33.035 33.484 33.133 32.858 32.808 32.412C32.484 31.964 31.859 31.866 31.412 32.191L19.3 41L31.412 49.808C31.59 49.936 31.795 49.999 31.999 49.999C32.309 49.999 32.614 49.857 32.809 49.587C33.134 49.141 33.035 48.515 32.588 48.191L24.075 42Z" id="Shape" fill="#B8B8B8" fill-opacity="0.670588255" fill-rule="evenodd" stroke="none" />
  </g>
</svg>