<?xml version="1.0"?>
<svg xmlns="http://www.w3.org/2000/svg" xmlns:xlink="http://www.w3.org/1999/xlink" version="1.1" id="Capa_1" x="0px" y="0px" viewBox="0 0 52.213 52.213" style="enable-background:new 0 0 52.213 52.213;" xml:space="preserve" width="512px" height="512px" class=""><g><circle style="fill:#556080;" cx="21" cy="21" r="20" data-original="#556080" class=""/><path style="fill:#64FFDA" d="M36.483,33.655c-0.846,1.034-1.794,1.982-2.828,2.828l15.73,15.73l2.828-2.828L36.483,33.655z" data-original="#2E253B" class="" data-old_color="#2E253B"/><path style="fill:#7383BF" d="M3.493,31.85c0.84,1.424,1.849,2.776,3.072,3.999c0.723,0.723,1.499,1.356,2.297,1.945L36.794,9.862  c-0.589-0.798-1.222-1.574-1.945-2.297c-1.223-1.223-2.575-2.232-3.999-3.072L3.493,31.85z" data-original="#7383BF" class="active-path" data-old_color="#7383BF"/><path style="fill:#64FFDA" d="M21,42C9.42,42,0,32.58,0,21S9.42,0,21,0s21,9.42,21,21S32.58,42,21,42z M21,2  C10.523,2,2,10.523,2,21s8.523,19,19,19s19-8.523,19-19S31.477,2,21,2z" data-original="#2E253B" class="" data-old_color="#2E253B"/></g> </svg>
