<?xml version="1.0" encoding="utf-8"?>
<svg width="58px" height="58px" viewBox="0 0 58 58" version="1.1" xmlns:xlink="http://www.w3.org/1999/xlink" xmlns="http://www.w3.org/2000/svg">
  <desc>Created with Lunacy</desc>
  <g id="shuffleac">
    <g id="Group">
      <path d="M0 29C0 12.9837 12.9837 0 29 0C45.0163 0 58 12.9837 58 29C58 45.0163 45.0163 58 29 58C12.9837 58 0 45.0163 0 29Z" id="Circle" fill="#1FD4A9" stroke="none" />
      <path d="M2 16C0.896 16 0 15.104 0 14C0 12.896 0.896 12 2 12C7.514 12 12 7.514 12 2C12 0.896 12.896 0 14 0C15.104 0 16 0.896 16 2C16 9.72 9.72 16 2 16L2 16Z" transform="translate(10 27)" id="Shape" fill="#FFFFFF" stroke="none" />
      <path d="M2 16C0.896 16 0 15.104 0 14C0 6.28 6.28 0 14 0L24 0C25.104 0 26 0.896 26 2C26 3.104 25.104 4 24 4L14 4C8.486 4 4 8.486 4 14C4 15.104 3.104 16 2 16L2 16Z" transform="translate(22 15)" id="Shape" fill="#FFFFFF" stroke="none" />
      <path d="M19.9397 6.99769L9.93969 6.99769C6.52369 6.99769 3.23369 5.75569 0.676689 3.49969C-0.15131 2.76869 -0.23031 1.50469 0.499689 0.676689C1.22969 -0.15131 2.49569 -0.230312 3.32269 0.499691C5.14869 2.11069 7.49969 2.99769 9.93969 2.99769L19.9397 2.99769C21.0437 2.99769 21.9397 3.89369 21.9397 4.99769C21.9397 6.10169 21.0437 6.99769 19.9397 6.99769L19.9397 6.99769Z" transform="translate(26.06031 36.00231)" id="Shape" fill="#FFFFFF" stroke="none" />
      <path d="M12.002 7.054C11.527 7.054 11.051 6.886 10.669 6.544C8.836 4.903 6.467 4 4 4L2 4C0.896 4 0 3.104 0 2C0 0.896 0.896 0 2 0L4 0C7.452 0 10.769 1.266 13.337 3.563C14.159 4.299 14.23 5.564 13.493 6.387C13.099 6.829 12.552 7.054 12.002 7.054L12.002 7.054Z" transform="translate(8 15)" id="Shape" fill="#FFFFFF" stroke="none" />
      <path d="M4 4L2 4C0.896 4 0 3.104 0 2C0 0.896 0.896 0 2 0L4 0C5.104 0 6 0.896 6 2C6 3.104 5.104 4 4 4L4 4Z" transform="translate(8 39)" id="Shape" fill="#FFFFFF" stroke="none" />
      <path d="M2.00183 20.0007C1.38383 20.0007 0.77383 19.7157 0.382832 19.1777C-0.26717 18.2837 -0.0691681 17.0327 0.82283 16.3837L9.59983 10.0007L0.82383 3.61769C-0.0691719 2.96869 -0.26717 1.7177 0.383831 0.823695C1.03183 -0.068305 2.28283 -0.268305 3.17783 0.383695L16.3998 10.0007L3.17583 19.6177C2.82083 19.8767 2.40883 20.0007 2.00183 20.0007L2.00183 20.0007Z" transform="translate(34.00017 6.999306)" id="Shape" fill="#FFFFFF" stroke="none" />
      <path d="M2.00183 20.0005C1.38383 20.0005 0.77383 19.7155 0.382832 19.1775C-0.26717 18.2835 -0.0691681 17.0325 0.82283 16.3835L9.59983 10.0005L0.82383 3.61755C-0.0691719 2.96855 -0.26717 1.71755 0.383831 0.823547C1.03183 -0.0694523 2.28283 -0.267452 3.17783 0.383547L16.3998 10.0005L3.17583 19.6175C2.82083 19.8765 2.40883 20.0005 2.00183 20.0005L2.00183 20.0005Z" transform="translate(34.00017 30.99945)" id="Shape" fill="#FFFFFF" stroke="none" />
    </g>
  </g>
</svg>