<?xml version="1.0" encoding="utf-8"?>
<svg width="60px" height="60px" viewBox="0 0 60 60" version="1.1" xmlns:xlink="http://www.w3.org/1999/xlink" xmlns="http://www.w3.org/2000/svg">
  <desc>Created with Lunacy</desc>
  <g id="shuffle">
    <g id="shuffle">
      <path d="M30 0C13.458 0 0 13.458 0 30C0 46.542 13.458 60 30 60C46.542 60 60 46.542 60 30C60 13.458 46.542 0 30 0ZM37.5498 26.4297C37.3718 26.5587 37.1668 26.6207 36.9628 26.6207C36.6528 26.6207 36.3488 26.4777 36.1528 26.2087C35.8278 25.7627 35.9258 25.1367 36.3738 24.8127L44.8868 18.6207L36.9618 18.6207C30.8968 18.6207 25.9618 23.5557 25.9618 29.6207C25.9618 36.7887 20.1298 42.6207 12.9618 42.6207L10.9618 42.6207C10.4088 42.6207 9.96179 42.1737 9.96179 41.6207C9.96179 41.0677 10.4088 40.6207 10.9618 40.6207L12.9618 40.6207C19.0268 40.6207 23.9618 35.6857 23.9618 29.6207C23.9618 22.4527 29.7938 16.6207 36.9618 16.6207L44.8868 16.6207L36.3738 10.4297C35.9268 10.1057 35.8278 9.47973 36.1528 9.03373C36.4768 8.58573 37.1008 8.48773 37.5488 8.81273L49.6618 17.6207L37.5498 26.4297ZM12.9618 16.6207L10.9618 16.6207C10.4088 16.6207 9.96179 17.0677 9.96179 17.6207C9.96179 18.1737 10.4088 18.6207 10.9618 18.6207L12.9618 18.6207C15.6748 18.6207 18.2798 19.6147 20.2978 21.4197C20.4888 21.5907 20.7278 21.6747 20.9648 21.6747C21.2388 21.6747 21.5128 21.5627 21.7098 21.3417C22.0778 20.9297 22.0428 20.2977 21.6318 19.9297C19.2468 17.7957 16.1678 16.6207 12.9618 16.6207ZM36.9628 50.6207C37.1668 50.6207 37.3718 50.5587 37.5498 50.4297L49.6618 41.6207L37.5488 32.8127C37.1008 32.4877 36.4768 32.5857 36.1528 33.0337C35.8278 33.4797 35.9268 34.1057 36.3738 34.4297L44.8868 40.6207L36.9618 40.6207C34.2768 40.6207 31.6918 39.6447 29.6828 37.8727C29.2718 37.5077 28.6388 37.5467 28.2718 37.9617C27.9068 38.3757 27.9458 39.0077 28.3608 39.3727C30.7348 41.4677 33.7898 42.6207 36.9618 42.6207L44.8868 42.6207L36.3738 48.8127C35.9258 49.1367 35.8278 49.7627 36.1528 50.2087C36.3488 50.4777 36.6528 50.6207 36.9628 50.6207Z" id="Shape" fill="#B8B8B8" fill-opacity="0.670588255" fill-rule="evenodd" stroke="none" />
    </g>
  </g>
</svg>