<svg id="Capa_1" enable-background="new 0 0 512 512" height="512" viewBox="0 0 512 512" width="512" xmlns="http://www.w3.org/2000/svg"><g><g><path d="m497 0h-482c-8.28 0-15 6.72-15 15v482c0 8.28 6.72 15 15 15h482c8.28 0 15-6.72 15-15v-482c0-8.28-6.72-15-15-15z" fill="#61729b"/></g><path d="m512 15v482c0 8.28-6.72 15-15 15h-241v-512h241c8.28 0 15 6.72 15 15z" fill="#47568c"/><g><path d="m136 422h-60c-8.284 0-15-6.716-15-15s6.716-15 15-15h60c8.284 0 15 6.716 15 15s-6.716 15-15 15z" fill="#ff7b4a"/></g><g><path d="m451 407c0 8.28-6.72 15-15 15h-240c-8.28 0-15-6.72-15-15s6.72-15 15-15h240c8.28 0 15 6.72 15 15z" fill="#ff7b4a"/></g><path d="m451 407c0 8.28-6.72 15-15 15h-180v-30h180c8.28 0 15 6.72 15 15z" fill="#ff435b"/><g><path d="m166 452c-24.813 0-45-20.187-45-45s20.187-45 45-45 45 20.187 45 45-20.187 45-45 45z" fill="#f0f7ff"/></g><g><path d="m436 62h-360c-8.28 0-15 6.72-15 15v240c0 8.28 6.72 15 15 15h360c8.28 0 15-6.72 15-15v-240c0-8.28-6.72-15-15-15z" fill="#ff7b4a"/></g><path d="m451 77v240c0 8.28-6.72 15-15 15h-180v-270h180c8.28 0 15 6.72 15 15z" fill="#ff435b"/><g><path d="m324.32 184.52-68.32-45.55-21.68-14.45c-9.96-6.64-23.32.53-23.32 12.48v120c0 11.96 13.37 19.12 23.32 12.48l21.68-14.45 68.32-45.55c8.91-5.94 8.89-19.04 0-24.96z" fill="#f0f7ff"/></g><path d="m324.32 209.48-68.32 45.55v-116.06l68.32 45.55c8.89 5.92 8.91 19.02 0 24.96z" fill="#dfe7f4"/></g></svg>