<?xml version="1.0" encoding="utf-8"?>
<svg width="502px" height="503px" viewBox="0 0 502 503" version="1.1" xmlns:xlink="http://www.w3.org/1999/xlink" xmlns="http://www.w3.org/2000/svg">
  <desc>Created with Lunacy</desc>
  <g id="vol1">
    <path d="M0 0L502 0L502 503L0 503L0 0Z" id="Background" fill="none" stroke="none" />
    <g id="play">
      <g id="Group">
        <g id="Group">
          <path d="M0 241C0 107.899 107.899 0 241 0C374.101 0 482 107.899 482 241C482 374.101 374.101 482 241 482C107.899 482 0 374.101 0 241L0 241Z" transform="translate(10 10)" id="Circle-2" fill="#545860" stroke="none" />
          <path d="M0 209.3C0 76.1994 101.799 0 234.9 0C255.246 0 271.889 8.72771 287.4 14C323.839 26.3854 350.23 45.3524 376.4 71.5C411.967 107.036 447.9 144.542 447.9 209.5C447.9 342.6 374.101 450.3 241 450.3C107.899 450.3 0 342.4 0 209.3L0 209.3Z" transform="translate(42 7.699982)" id="Circle" fill="#CCD7EB" stroke="none" />
          <path d="M251 502C183.956 502 120.924 475.892 73.516 428.484C26.108 381.076 0 318.044 0 251C0 183.956 26.108 120.924 73.516 73.516C120.924 26.108 183.956 0 251 0C318.044 0 381.076 26.108 428.484 73.516C475.892 120.924 502 183.956 502 251C502 318.044 475.892 381.076 428.484 428.484C381.076 475.892 318.044 502 251 502ZM251 20C123.626 20 20 123.626 20 251C20 378.374 123.626 482 251 482C378.374 482 482 378.374 482 251C482 123.626 378.374 20 251 20Z" id="Shape" fill="#000000" fill-rule="evenodd" stroke="none" />
        </g>
      </g>
      <g id="Group" transform="translate(111.4 126.2)">
        <g id="Group">
          <path d="M186.35 1.75716C182.664 -0.291961 178.158 -0.702256 174.472 1.34765L78.2262 50.9402L24.5737 50.9402C10.6488 50.9402 0 61.5969 0 75.5321L0 175.13C0 189.065 10.6488 199.722 24.5737 199.722L78.2262 199.312L174.473 248.905C176.112 249.725 178.159 250.135 180.207 250.135C182.254 250.135 184.712 249.725 186.76 248.495C190.446 246.446 192.493 242.347 192.493 237.838L192.493 12.4131C192.084 8.31485 190.036 4.2158 186.35 1.75716L186.35 1.75716L186.35 1.75716Z" id="Shape-path" fill="#000000" stroke="none" />
          <path d="M80.3211 194.145L0 152.911L0 41.2343L80.3211 0L80.3211 194.145L80.3211 194.145L80.3211 194.145Z" transform="translate(93.01862 27.80347)" id="Shape-path" fill="#64FFDB" stroke="none" />
          <path d="M13.0431 113.912C5.65151 113.912 0 108.26 0 100.869C0 93.4781 5.65232 87.8258 13.0431 87.8258C30.0001 87.8258 43.9129 73.913 43.9129 56.956C43.9129 39.999 30.0001 26.0863 13.0431 26.0863C5.65151 26.0863 0 20.4339 0 13.0431C0 5.65149 5.65232 0 13.0431 0C44.3473 0 70 25.6518 70 56.9569C70 88.2602 44.3481 113.912 13.0431 113.912L13.0431 113.912L13.0431 113.912Z" transform="translate(206 68.99994)" id="Shape" fill="#000000" stroke="none" />
        </g>
      </g>
    </g>
  </g>
</svg>