<?xml version="1.0" encoding="utf-8"?>
<svg width="502px" height="503px" viewBox="0 0 502 503" version="1.1" xmlns:xlink="http://www.w3.org/1999/xlink" xmlns="http://www.w3.org/2000/svg">
  <desc>Created with Lunacy</desc>
  <g id="vol2">
    <path d="M0 0L502 0L502 503L0 503L0 0Z" id="Background" fill="none" stroke="none" />
    <g id="play">
      <g id="Group">
        <g id="Group">
          <path d="M0 241C0 107.899 107.899 0 241 0C374.101 0 482 107.899 482 241C482 374.101 374.101 482 241 482C107.899 482 0 374.101 0 241L0 241Z" transform="translate(10 10)" id="Circle-2" fill="#545860" stroke="none" />
          <path d="M0 209.3C0 76.1994 101.799 0 234.9 0C255.246 0 271.889 8.72771 287.4 14C323.839 26.3854 350.23 45.3524 376.4 71.5C411.967 107.036 447.9 144.542 447.9 209.5C447.9 342.6 374.101 450.3 241 450.3C107.899 450.3 0 342.4 0 209.3L0 209.3Z" transform="translate(42 7.699982)" id="Circle" fill="#CCD7EB" stroke="none" />
          <path d="M251 502C183.956 502 120.924 475.892 73.516 428.484C26.108 381.076 0 318.044 0 251C0 183.956 26.108 120.924 73.516 73.516C120.924 26.108 183.956 0 251 0C318.044 0 381.076 26.108 428.484 73.516C475.892 120.924 502 183.956 502 251C502 318.044 475.892 381.076 428.484 428.484C381.076 475.892 318.044 502 251 502ZM251 20C123.626 20 20 123.626 20 251C20 378.374 123.626 482 251 482C378.374 482 482 378.374 482 251C482 123.626 378.374 20 251 20Z" id="Shape" fill="#000000" fill-rule="evenodd" stroke="none" />
        </g>
      </g>
      <g id="Group" transform="translate(107.4 126.2)">
        <g id="Group">
          <path d="M186.35 1.75716C182.664 -0.291961 178.158 -0.702256 174.472 1.34765L78.2262 50.9402L24.5737 50.9402C10.6488 50.9402 0 61.5969 0 75.5321L0 175.13C0 189.065 10.6488 199.722 24.5737 199.722L78.2262 199.312L174.473 248.905C176.112 249.725 178.159 250.135 180.207 250.135C182.254 250.135 184.712 249.725 186.76 248.495C190.446 246.446 192.493 242.347 192.493 237.838L192.493 12.4131C192.084 8.31485 190.036 4.2158 186.35 1.75716L186.35 1.75716L186.35 1.75716Z" id="Shape-path" fill="#000000" stroke="none" />
          <path d="M80.3211 194.145L0 152.911L0 41.2343L80.3211 0L80.3211 194.145L80.3211 194.145L80.3211 194.145Z" transform="translate(93.01862 27.80347)" id="Shape-path" fill="#64FFDB" stroke="none" />
          <path d="M9.68364 84.572C4.19586 84.572 0 80.3755 0 74.8883C0 69.4012 4.19647 65.2047 9.68364 65.2047C22.2731 65.2047 32.6024 54.8754 32.6024 42.286C32.6024 29.6966 22.2731 19.3673 9.68364 19.3673C4.19586 19.3673 0 15.1708 0 9.68364C0 4.19585 4.19647 0 9.68364 0C32.9249 0 51.9703 19.0448 51.9703 42.2866C51.9702 65.5272 32.9255 84.572 9.68364 84.572L9.68364 84.572L9.68364 84.572Z" transform="translate(208.487 82.79248)" id="Shape" fill="#000000" stroke="none" />
          <path d="M9.42465 185.356C4.08364 185.356 0 180.818 0 174.885C0 168.95 4.08423 164.413 9.42465 164.413C44.9254 164.413 73.8283 132.298 73.8283 92.5038C73.8283 53.0583 44.9254 20.9438 9.42465 20.9438C4.08364 20.9438 0 16.4057 0 10.4719C0 4.53807 4.08423 0 9.42465 0C55.2929 0 92.6782 41.5395 92.6782 92.5045C92.6782 143.817 55.2929 185.356 9.42465 185.356L9.42465 185.356L9.42465 185.356Z" transform="translate(207.3218 32.12842)" id="Shape" fill="#000000" stroke="none" />
        </g>
      </g>
    </g>
  </g>
</svg>