<?xml version="1.0" ?><svg height="58px" version="1.1" viewBox="0 0 58 58" width="58px" xmlns="http://www.w3.org/2000/svg" xmlns:xlink="http://www.w3.org/1999/xlink"><title/><desc/><defs/><g fill="none" fill-rule="evenodd" id="Page-1" stroke="none" stroke-width="1"><g fill-rule="nonzero" id="014---Volume"><ellipse cx="29" cy="29" fill="#35495E" id="Oval" rx="29" ry="28.875"/><path d="M29,54.875 C14.7258624,54.8062083 3.20367241,43.1910968 3.24953355,28.9168671 C3.29539468,14.6426374 14.8919815,3.1018034 29.1662665,3.12473387 C43.4405514,3.14766433 54.9999997,14.7256966 55,29 C54.9492389,43.3181062 43.3181845,54.893242 29,54.875 Z M29,5.125 C15.8304243,5.19376862 5.20363798,15.9134441 5.24948467,29.0831195 C5.29533136,42.2527949 15.9964946,52.898223 29.1662298,52.8752983 C42.3359651,52.8523737 53.0000025,42.1697552 53,29 C52.950323,15.7860145 42.2140648,5.10567421 29,5.125 Z" fill="#FF5364" id="Shape"/><path d="M16,25 L20,25 L20,33 L16,33 C14.8954305,33 14,32.1045695 14,31 L14,27 C14,25.8954305 14.8954305,25 16,25 Z" fill="#DF4D60" id="Shape"/><path d="M29.78058,17.47644 L20,25 L20,33 L29.78058,40.5235 C30.3845142,40.9880638 31.1999488,41.0691137 31.8835137,40.7325205 C32.5670787,40.3959272 33.0000079,39.7001723 33,38.93823 L33,19.06171 C33.0000079,18.2997677 32.5670787,17.6040128 31.8835137,17.2674195 C31.1999488,16.9308263 30.3845142,17.0118762 29.78058,17.47644 Z" fill="#FF5364" id="Shape"/><path d="M37,39 C36.4477153,39 36,38.5522847 36,38 C36,37.4477153 36.4477153,37 37,37 C40.8659932,36.9999999 43.9999999,33.8659932 43.9999999,30 C43.9999999,26.1340068 40.8659932,23.0000001 37,23 C36.4477153,23 36,22.5522847 36,22 C36,21.4477153 36.4477153,21 37,21 C41.9705627,21 46,25.0294373 46,30 C46,34.9705627 41.9705627,39 37,39 Z" fill="#DF4D60" id="Shape"/><path d="M37,35 C36.4477153,35 36,34.5522847 36,34 C36,33.4477153 36.4477153,33 37,33 C38.6568542,33 40,31.6568542 40,30 C40,28.3431458 38.6568542,27 37,27 C36.4477153,27 36,26.5522847 36,26 C36,25.4477153 36.4477153,25 37,25 C39.7614237,25 42,27.2385763 42,30 C42,32.7614237 39.7614237,35 37,35 Z" fill="#DF4D60" id="Shape"/></g></g></svg>